<?xml version="1.0" standalone="no"?>
<!DOCTYPE svg PUBLIC "-//W3C//DTD SVG 1.1//EN" "http://www.w3.org/Graphics/SVG/1.1/DTD/svg11.dtd" >
<svg xmlns="http://www.w3.org/2000/svg">
<metadata></metadata>
<defs>
<font id="notcouriersansbold" horiz-adv-x="1228" >
<font-face units-per-em="2048" ascent="1638" descent="-410" />
<missing-glyph horiz-adv-x="500" />
<glyph unicode="&#xfb01;" d="M-20 793q0 27 13 51t36 37q21 14 88 14h78v80q0 126 80.5 213.5t197.5 87.5q55 0 113.5 -14.5t89.5 -34.5q45 -28 45 -82q0 -43 -29.5 -74t-70.5 -31q-18 0 -62 15q-50 18 -80 18q-32 0 -56 -29t-24 -69v-80h68q66 0 92 -18q43 -32 43 -84q0 -56 -49 -88q-24 -15 -86 -15 h-68v-690h-204v690h-78q-68 0 -94 21q-43 29 -43 82zM678 793q0 27 13 51t36 37q21 14 86 14h246v-895h-205v690h-41q-66 0 -92 21q-43 29 -43 82zM782 1063v215h242v-215h-242z" />
<glyph unicode="&#xfb02;" d="M-25 793q0 27 13.5 51t36.5 37q21 14 88 14h75v78q0 126 80 214.5t193 88.5q132 0 223 -57q17 32 39 44.5t61 12.5h267v-1276h-205v1071h-70q-36 0 -74 25q-30 -56 -81 -56q-16 0 -60 13q-55 18 -86 18q-38 0 -60 -26t-22 -72v-78h68q66 0 92 -18q43 -32 43 -84 q0 -56 -49 -88q-24 -15 -86 -15h-68v-690h-205v690h-75q-69 0 -95 21q-43 29 -43 82z" />
<glyph horiz-adv-x="600" />
<glyph horiz-adv-x="600" />
<glyph unicode="&#xd;" horiz-adv-x="682" />
<glyph unicode=" " />
<glyph unicode="!" d="M451 1143q0 71 46.5 117.5t118.5 46.5q70 0 117 -46.5t47 -117.5q0 -14 -4 -68l-59 -608q-4 -47 -31 -73.5t-70 -26.5t-70 27t-32 73l-59 608q-4 50 -4 68zM461 104q0 56 40 96t97 40h35q57 0 96 -39.5t39 -96.5t-39 -96t-96 -39h-35q-57 0 -97 39.5t-40 95.5z" />
<glyph unicode="&#x22;" d="M279 1233h262l-64 -520q-6 -40 -20.5 -57t-44.5 -17q-29 0 -44.5 17t-19.5 55zM688 1233h262l-63 -520q-6 -40 -21 -57t-45 -17q-29 0 -43.5 17t-19.5 55z" />
<glyph unicode="#" d="M127 387q0 25 13 49t36 37q21 14 86 14h68l14 218h-39q-68 0 -94 18q-43 32 -43 84q0 27 13 51t36 37q21 14 88 14h53l25 344q1 38 5.5 55t17.5 35q31 39 81 39q43 0 73 -30t30 -72v-4l-2 -37l-23 -330h146l24 344q1 41 5.5 57.5t17.5 32.5q31 39 82 39q38 0 70 -29 t32 -64v-5l-4 -45l-23 -330h52q66 0 92 -18q43 -32 43 -84q0 -27 -13 -51t-36 -37q-25 -14 -86 -14h-66l-16 -218h39q71 0 94 -18q43 -32 43 -84q0 -58 -49 -86q-25 -14 -86 -14h-56l-22 -344q-1 -23 -10 -52.5t-17 -38.5q-30 -38 -80 -38q-40 0 -70 30t-30 68v6l4 39 l23 330h-148l-24 -344q0 -129 -103 -129q-44 0 -73 30t-29 76q0 23 2 37l22 330h-53q-66 0 -92 18q-43 32 -43 84zM535 487h147l14 218h-145z" />
<glyph unicode="$" d="M170 357q0 40 18 69q12 20 35.5 31.5t48.5 11.5q41 0 74 -29q11 -13 15 -22t16 -49q12 -47 82 -81t155 -34q99 0 165.5 45t66.5 111q0 54 -38.5 85t-125.5 48l-152 30q-152 31 -231.5 112t-79.5 206q0 120 82.5 209t214.5 112v54q0 63 19 94q33 41 83 41q59 0 87 -49 q14 -21 14 -86v-54q101 -18 137 -36q71 -38 115 -100t44 -119q0 -34 -18 -60q-30 -43 -84 -43q-41 0 -69 22.5t-37 63.5q-4 29 -56.5 51.5t-115.5 22.5q-92 0 -147.5 -35t-55.5 -92q0 -85 154 -115l133 -29q180 -38 254 -112q86 -86 86 -223q0 -134 -90.5 -228t-249.5 -125 v-170q0 -43 -3.5 -61t-15.5 -33q-32 -43 -82 -43q-27 0 -51 13t-37 36q-14 21 -14 88v170q-13 3 -24 5.5t-19.5 4t-17 4t-14 4t-13.5 4.5t-12 4t-13.5 5t-13.5 5.5t-16.5 7t-18.5 7.5q-70 29 -127 103.5t-57 147.5z" />
<glyph unicode="%" d="M164 494q0 25 13.5 38.5t47.5 24.5l742 242q25 8 41 8q23 0 41 -20t18 -46q0 -25 -14 -39.5t-47 -23.5l-742 -242q-28 -8 -41 -8q-23 0 -41 20t-18 46zM182 979q0 117 84 201t201 84q121 0 204 -83.5t83 -205.5q0 -116 -84 -199.5t-201 -83.5q-119 0 -203 84t-84 203z M315 979q0 -63 45 -108.5t107 -45.5q63 0 108.5 45t45.5 107q0 64 -44.5 108.5t-109.5 44.5q-62 0 -107 -45t-45 -106zM469 256q0 117 84 201t201 84q121 0 203.5 -83.5t82.5 -205.5q0 -116 -84 -199.5t-202 -83.5q-117 0 -201 84.5t-84 202.5zM602 256q0 -63 45.5 -108.5 t108.5 -45.5q61 0 106 45t45 107q0 65 -44.5 109.5t-108.5 44.5q-62 0 -107 -45t-45 -107z" />
<glyph unicode="&#x26;" d="M154 295q0 103 50.5 187t145.5 139q-41 71 -55 110t-14 86q0 124 93 216.5t218 92.5q25 0 54.5 -6t73.5 -23t89.5 -57t81.5 -98l-168 -90q-45 40 -72 55t-57 15q-44 0 -76.5 -30t-32.5 -73q0 -35 58 -117l205 -296l47 167h202q-52 -266 -108 -368l135 -205h-244l-22 31 q-46 -33 -98.5 -46.5t-133.5 -13.5q-169 0 -270.5 88t-101.5 236zM358 295q0 -119 168 -119q38 0 61 6t52 23l-172 246q-109 -50 -109 -156z" />
<glyph unicode="'" d="M483 1233h262l-63 -520q-6 -40 -21 -57t-45 -17q-29 0 -43.5 17t-19.5 55z" />
<glyph unicode="(" d="M541 498q0 165 62.5 351t174.5 353q35 55 59 73.5t58 18.5q44 0 74 -29t30 -71q0 -30 -24 -70q-107 -172 -157 -324.5t-50 -307.5q0 -156 50.5 -309t156.5 -326q24 -40 24 -70q0 -42 -30 -71t-74 -29q-37 0 -64 23.5t-71 94.5q-219 349 -219 693z" />
<glyph unicode=")" d="M240 -213q0 30 24 70q107 172 157 324.5t50 307.5q0 156 -50.5 309t-156.5 326q-24 40 -24 70q0 42 30 71t74 29q37 0 64 -23.5t71 -94.5q219 -349 219 -693q0 -165 -62.5 -351.5t-174.5 -354.5q-35 -53 -59 -71.5t-58 -18.5q-44 0 -74 29t-30 71z" />
<glyph unicode="*" d="M170 926q0 41 29 71.5t67 30.5q20 0 70 -14l176 -58v183q0 69 18 92q32 43 84 43q27 0 51 -13t37 -36q15 -27 15 -86v-183l176 58q50 14 68 14q38 0 68 -31t30 -71t-24 -65t-79 -42l-176 -57l107 -146q39 -54 39 -88q0 -41 -31 -71.5t-72 -30.5q-32 0 -50.5 13t-51.5 57 l-107 147l-106 -147q-31 -42 -51 -56t-51 -14q-41 0 -72 30.5t-31 71.5q0 20 7.5 36.5t31.5 51.5l107 146l-177 57q-57 17 -79.5 41t-22.5 66z" />
<glyph unicode="+" d="M86 573q0 27 13 51.5t36 37.5q21 14 86 14h291v336q0 70 20 92q27 43 82 43q27 0 51 -13t37 -36q15 -22 15 -86v-336h289q67 0 94 -19q43 -32 43 -84q0 -27 -13 -51t-36 -37q-22 -14 -88 -14h-289v-336q0 -65 -19 -92q-32 -43 -84 -43q-27 0 -51 13t-37 36q-14 25 -14 86 v336h-291q-69 0 -92 18q-43 32 -43 84z" />
<glyph unicode="," d="M301 -266q0 16 6 39l142 501h270l-289 -548q-24 -50 -65 -50q-26 0 -45 17.5t-19 40.5z" />
<glyph unicode="-" d="M86 571q0 56 49 88q23 15 86 15h787q67 0 94 -19q41 -30 41 -84q0 -27 -13 -51t-36 -37q-22 -14 -86 -14h-787q-69 0 -92 18q-43 32 -43 84z" />
<glyph unicode="." d="M461 104q0 56 40 96t95 40h37q57 0 96 -39.5t39 -96.5t-39 -96t-96 -39h-37q-56 0 -95.5 39.5t-39.5 95.5z" />
<glyph unicode="/" d="M170 -133q0 27 25 78l657 1388q23 52 45.5 71t58.5 19q41 0 72 -30t31 -68q0 -25 -25 -76l-655 -1390q-23 -52 -46.5 -71t-60.5 -19q-40 0 -71 30t-31 68z" />
<glyph unicode="0" d="M170 541v194q0 140 42 260t118 199q107 113 284 113q178 0 285 -113q76 -79 118 -199t42 -260v-194q0 -140 -42 -260t-118 -199q-107 -113 -285 -113q-177 0 -284 113q-76 79 -118 199t-42 260zM375 526q0 -160 65 -256t174 -96t174.5 96t65.5 256v224q0 160 -65.5 256 t-174.5 96t-174 -96t-65 -256v-224z" />
<glyph unicode="1" d="M174 1090q0 44 23.5 66.5t85.5 37.5l434 113v-1307h-205v1042l-178 -47q-47 -12 -66 -12q-40 0 -67 31.5t-27 75.5z" />
<glyph unicode="2" d="M111 0v215q387 320 475 401q152 138 195.5 193.5t43.5 108.5q0 78 -67.5 131t-167.5 53q-128 0 -199 -84q-15 -19 -21.5 -32.5t-23.5 -61.5q-7 -26 -33.5 -43t-58.5 -17q-41 0 -71.5 29.5t-30.5 69.5q0 50 35 116t87 113q61 55 145 85t175 30q187 0 311.5 -114 t124.5 -284q0 -100 -50 -178.5t-202 -216.5q-36 -34 -354 -309h616v-205h-929z" />
<glyph unicode="3" d="M135 143q0 43 30 73t73 30q18 0 27.5 -4t37.5 -21q40 -26 94 -36.5t152 -10.5q105 0 167.5 16.5t104.5 53.5q58 55 58 131q0 57 -42 107t-114 79q-33 14 -63 19t-95 8q-51 3 -78.5 28t-27.5 66q0 44 30 73t76 29h82q75 0 131 48.5t56 113.5q0 72 -62 114t-168 42 q-85 0 -135.5 -20t-99.5 -74q-31 -31 -74 -31q-41 0 -70.5 30.5t-29.5 71.5q0 89 128.5 158.5t292.5 69.5q204 0 320 -119q49 -46 75.5 -110t26.5 -128q0 -84 -43 -146t-143 -122q231 -113 231 -309q0 -89 -40 -170t-111 -137q-68 -51 -156 -74t-221 -23q-189 0 -304.5 48 t-115.5 126z" />
<glyph unicode="4" d="M154 283v170l493 821h268v-787q60 0 92.5 -26.5t32.5 -75.5q0 -99 -125 -102v-283h-204v283h-557zM403 487h308v496z" />
<glyph unicode="5" d="M135 172q0 41 30.5 70.5t72.5 29.5q22 0 36 -5.5t37 -24.5q46 -38 101.5 -53t154.5 -15q160 0 236 58t76 180q0 114 -63.5 183t-166.5 69q-109 0 -246 -70q-36 -16 -57 -16q-44 0 -73 32.5t-29 81.5v582h618q63 0 94 -19q41 -33 41 -84q0 -27 -13 -51t-36 -37 q-20 -14 -86 -14h-413v-235q109 34 202 34q186 0 309 -129t123 -325q0 -184 -112 -305q-68 -74 -163 -107t-239 -33q-184 0 -309 58.5t-125 144.5z" />
<glyph unicode="6" d="M215 584q0 270 158 469q207 254 493 254q107 0 173.5 -36.5t66.5 -96.5q0 -43 -31 -74t-74 -31q-27 0 -71 16q-32 11 -51 11q-163 0 -290.5 -121.5t-162.5 -310.5q73 78 138 110.5t143 32.5q161 0 275 -123.5t114 -296.5q0 -181 -107 -297q-109 -121 -311 -121 q-256 0 -373 209q-40 74 -65 185.5t-25 220.5zM446 428q23 -133 80.5 -193.5t157.5 -60.5q97 0 152 57.5t55 157.5q0 89 -58 151t-141 62q-66 0 -135.5 -49.5t-110.5 -124.5z" />
<glyph unicode="7" d="M154 1069v205h886v-203l-325 -973q-20 -56 -43.5 -78t-63.5 -22q-41 0 -72.5 29t-31.5 69q0 21 14 70l307 903h-671z" />
<glyph unicode="8" d="M170 338q0 190 199 315q-181 121 -181 279q0 157 124 266t302 109q177 0 301.5 -108.5t124.5 -262.5q0 -84 -43.5 -152.5t-136.5 -130.5q199 -125 199 -315q0 -164 -124 -266.5t-323 -102.5q-197 0 -319.5 102.5t-122.5 266.5zM375 354q0 -78 67.5 -129t171.5 -51 t172 50.5t68 127.5q0 78 -69.5 132.5t-170.5 54.5q-98 0 -168.5 -54.5t-70.5 -130.5zM393 924q0 -78 62 -128.5t159 -50.5t159.5 50t62.5 127q0 80 -62 130t-160 50t-159.5 -50t-61.5 -128z" />
<glyph unicode="9" d="M217 102q0 43 31 74t74 31q24 0 71 -17q29 -10 51 -10q163 0 290.5 121.5t162.5 310.5q-73 -77 -137.5 -110t-141.5 -33q-162 0 -276.5 123t-114.5 297q0 181 107 297q109 121 311 121q256 0 373 -209q40 -72 65 -185t25 -221q0 -270 -158 -469q-207 -254 -493 -254 q-107 0 -173.5 36.5t-66.5 96.5zM432 887q0 -89 58 -151t141 -62q66 0 135.5 49.5t110.5 124.5q-23 133 -80.5 193.5t-157.5 60.5q-97 0 -152 -57.5t-55 -157.5z" />
<glyph unicode=":" d="M461 104q0 56 40 96t95 40h37q57 0 96 -39.5t39 -96.5t-39 -96t-96 -39h-37q-56 0 -95.5 39.5t-39.5 95.5zM461 758q0 57 39.5 97t95.5 40h37q57 0 96 -39.5t39 -97.5q0 -57 -39 -96t-96 -39h-37q-56 0 -95.5 39.5t-39.5 95.5z" />
<glyph unicode=";" d="M301 -266q0 16 6 39l142 501h270l-289 -548q-24 -50 -65 -50q-26 0 -45 17.5t-19 40.5zM412 760q0 60 42 97.5t111 37.5q71 0 112.5 -37t41.5 -100q0 -61 -42.5 -98t-111.5 -37t-111 37.5t-42 99.5z" />
<glyph unicode="&#x3c;" d="M86 573l881 435q38 18 61 18q22 0 43.5 -14.5t30.5 -36.5l2 -4q10 -20 10 -39q0 -29 -15 -49t-50 -39l-535 -273l535 -278q35 -19 50 -39t15 -49q0 -16 -10 -39l-2 -4q-9 -22 -30.5 -36.5t-43.5 -14.5q-26 0 -61 18z" />
<glyph unicode="=" d="M86 385q0 27 13 51t36 37q21 14 86 14h787q66 0 92 -18q43 -32 43 -84q0 -27 -13 -51t-36 -37q-22 -14 -86 -14h-787q-70 0 -92 20q-43 29 -43 82zM86 762q0 27 13 51t36 37q21 14 86 14h787q66 0 92 -18q43 -32 43 -84q0 -27 -13 -51t-36 -37q-24 -15 -86 -15h-787 q-68 0 -92 21q-43 29 -43 82z" />
<glyph unicode="&#x3e;" d="M115 205q0 28 15 47.5t50 38.5l535 272l-535 281q-35 17 -50 36.5t-15 47.5q0 18 10 41l2 4q7 20 29.5 35.5t44.5 15.5q27 0 61 -18l881 -445l-881 -434q-38 -18 -61 -18q-22 0 -43.5 14.5t-30.5 36.5l-2 4q-10 23 -10 41z" />
<glyph unicode="?" d="M213 1104q149 71 234.5 96t183.5 25q190 0 309 -107.5t119 -279.5q0 -124 -75 -206.5t-261 -164.5q-12 -111 -102 -111q-27 0 -51.5 13.5t-37.5 36.5q-14 25 -14 86v114q196 75 266 125.5t70 116.5q0 76 -61.5 124t-159.5 48q-114 0 -215 -49zM465 104q0 56 40 96t97 40 h35q57 0 96 -39.5t39 -96.5t-39 -96t-96 -39h-35q-57 0 -97 39.5t-40 95.5z" />
<glyph unicode="@" d="M156 315v347q0 174 59 313t164.5 217t236.5 78q166 0 272.5 -110.5t106.5 -280.5v-576q47 -20 47 -72q0 -84 -112 -84h-96v7q-54 -7 -68 -7q-130 0 -225 94t-95 222q0 143 108 240.5t280 109.5v66q0 101 -60.5 165t-155.5 64q-129 0 -215 -131t-86 -328v-319 q0 -235 105 -379q70 -103 203 -103q68 0 125 17.5t86 48.5q22 22 33.5 28.5t29.5 6.5q34 0 58 -24.5t24 -59.5q0 -72 -108 -124t-255 -52q-126 0 -214 52.5t-152 166.5q-96 175 -96 407zM608 461q0 -63 49.5 -105.5t122.5 -42.5q25 0 54 4v330q-101 -9 -163.5 -60 t-62.5 -126z" />
<glyph unicode="A" d="M10 0l486 1194h229l492 -1194h-238l-127 324h-487l-127 -324h-228zM446 528h322l-160 394z" />
<glyph unicode="B" d="M193 0v1194h487q173 0 287 -96t114 -242q0 -70 -30.5 -124t-98.5 -107q111 -56 164 -128.5t53 -168.5q0 -148 -110.5 -238t-292.5 -90h-573zM397 205h359q209 0 209 110q0 37 -24 74t-64 62q-74 45 -203 45h-277v-291zM397 700h232q110 0 179 44t69 114q0 61 -55 96 t-152 35h-273v-289z" />
<glyph unicode="C" d="M68 510v135q0 162 73 294.5t201 208t283 75.5q80 0 143.5 -15t146.5 -55q88 -42 149 -126t61 -161q0 -40 -19 -71q-27 -43 -84 -43q-44 0 -72 28q-12 12 -17 27t-11 53q-8 37 -27.5 60.5t-63.5 48.5q-87 49 -198 49q-157 0 -259 -106t-102 -267v-131q0 -154 110 -246 t294 -92q148 0 225 47q17 9 26 17t52 53q33 33 74 33t71.5 -31t30.5 -72q0 -73 -108 -149q-67 -49 -166.5 -76t-210.5 -27q-261 0 -431.5 153t-170.5 386z" />
<glyph unicode="D" d="M143 1194h455q147 0 268.5 -74.5t190.5 -205t69 -289.5v-97q0 -225 -143 -374q-75 -79 -172 -116.5t-229 -37.5h-430v1194h-9zM356 205h228q92 0 149.5 20.5t104.5 69.5q84 93 84 240v94q0 146 -93 256q-88 104 -247 104h-226v-784z" />
<glyph unicode="E" d="M193 0v1194h888v-205h-684v-289h377v-202h-377v-293h729v-205h-933z" />
<glyph unicode="F" d="M193 0v1194h933v-205h-729v-289h377v-202h-377v-498h-204z" />
<glyph unicode="G" d="M68 504v145q0 117 45 225.5t127 190.5q162 158 409 158q168 0 297 -66q32 -17 70.5 -49t74.5 -87t36 -109q0 -41 -19 -76q-23 -43 -84 -43q-45 0 -72 30q-9 10 -12.5 20t-15.5 58q-15 54 -88 85.5t-185 31.5q-174 0 -270 -96q-51 -51 -80 -123.5t-29 -149.5v-131 q0 -174 93 -252q107 -90 301 -90q142 0 256 51v142h-230v204l434 -1v-474q-137 -72 -233 -99.5t-215 -27.5q-150 0 -275 42.5t-200 119.5q-63 66 -99 165t-36 206z" />
<glyph unicode="H" d="M195 0v1196h204v-498h439v498h204v-1196h-204v494h-439v-494h-204z" />
<glyph unicode="I" d="M512 0v1196h205v-1196h-205z" />
<glyph unicode="J" d="M111 104l204 136q142 -64 240 -64q55 0 107 20t88 54q32 32 40.5 59t8.5 97v788h205v-811q0 -101 -30 -167.5t-102 -129.5q-134 -115 -321 -115q-171 0 -440 133z" />
<glyph unicode="K" d="M193 0v1196h204v-512l596 510q0 -1 74 -1l211 1l-592 -518q50 -26 106.5 -83t114 -140t106.5 -202.5t74 -250.5h-215q-72 220 -165 360.5t-187 169.5l-123 -104v-426h-204z" />
<glyph unicode="L" d="M319 0v1194h205v-989h645v-205h-850z" />
<glyph unicode="M" d="M86 0v1194h252l283 -608l276 608h254v-1194h-205v797l-227 -514h-187q-241 512 -241 514v-797h-205z" />
<glyph unicode="N" d="M150 0v1194h204l529 -803v803h204v-1194h-202l-531 807v-807h-204z" />
<glyph unicode="O" d="M43 598q0 169 76.5 313t208 228t286.5 84q210 0 379 -158q193 -184 193 -477q0 -165 -77.5 -307.5t-209.5 -226t-285 -83.5q-155 0 -286.5 84t-208 228.5t-76.5 314.5zM248 598q0 -173 107.5 -297.5t258.5 -124.5q149 0 258 123.5t109 292.5q0 177 -107.5 301.5 t-259.5 124.5q-99 0 -183.5 -57t-133.5 -153.5t-49 -209.5z" />
<glyph unicode="P" d="M193 0v1194h446q195 0 319.5 -108.5t124.5 -278.5q0 -151 -102 -262q-67 -75 -153.5 -105t-229.5 -30h-201v-410h-204zM397 614h242q105 0 166 50.5t61 136.5q0 88 -60.5 138t-166.5 50h-242v-375z" />
<glyph unicode="Q" d="M43 598q0 169 76.5 313t208 228t286.5 84q115 0 221 -49.5t183 -133t122.5 -198.5t45.5 -240q0 -171 -80.5 -315.5t-226.5 -231.5q-115 -69 -287 -69q-21 0 -37 2l-8 -49q61 10 104 10q73 0 172 -27q55 -14 84 -14q40 0 88 31q34 22 49 28t33 6q44 0 74.5 -29.5 t30.5 -72.5q0 -32 -17.5 -55.5t-60.5 -48.5q-105 -64 -195 -64q-38 0 -61 6t-96 35q-46 16 -99 16q-33 0 -113.5 -13t-144.5 -30q-42 -10 -57 -10q-40 0 -69 32t-29 75q0 23 8 38.5t33 38.5l127 123q-115 66 -173.5 117t-101.5 123q-90 158 -90 344zM248 596 q0 -172 108 -297t258 -125q149 0 258 123.5t109 292.5q0 178 -107.5 303t-259.5 125q-151 0 -258.5 -124.5t-107.5 -297.5z" />
<glyph unicode="R" d="M193 0v1194h425q199 0 325 -102t126 -263q0 -97 -54 -172t-167 -137q121 -113 201 -232.5t159 -287.5h-237q-76 148 -194 290t-183 165h-197v-455h-204zM397 659h156q129 0 214 50.5t85 126.5q0 66 -63.5 109.5t-161.5 43.5h-230v-330z" />
<glyph unicode="S" d="M126 297q0 38 19 70q23 41 84 41q45 0 74 -29q11 -11 15 -20.5t16 -49.5q15 -55 98.5 -94t185.5 -39q114 0 192.5 45t78.5 111q0 67 -74 108q-32 17 -70.5 27t-144.5 29q-100 17 -157.5 34t-106.5 45q-78 44 -123 120.5t-45 164.5q0 155 127 259t317 104q77 0 133 -14.5 t134 -53.5t129 -115t51 -150q0 -43 -19 -77q-25 -43 -82 -43q-44 0 -73 29q-11 12 -15 23t-14 59q-13 61 -81 99t-163 38q-97 0 -164 -45t-67 -111q0 -32 21 -63.5t55 -48.5q33 -16 64.5 -24.5t140.5 -29.5q133 -25 202 -49.5t117 -62.5q121 -97 121 -256 q0 -160 -129 -258.5t-340 -98.5q-83 0 -154.5 18t-165.5 62q-71 33 -129 104.5t-58 141.5z" />
<glyph unicode="T" d="M86 989v207h1057v-207h-428v-989h-205v989h-424z" />
<glyph unicode="U" d="M145 420v774h205v-793q0 -94 77.5 -159.5t186.5 -65.5t187 66t78 159v793h204v-774q0 -219 -172 -348q-131 -101 -297 -101t-297 101q-172 132 -172 348z" />
<glyph unicode="V" d="M10 1194h230l381 -899l383 901h217l-508 -1196h-203z" />
<glyph unicode="W" d="M47 1194h211l100 -762l156 463h213l156 -463l98 762h199l-150 -1194h-225l-191 567l-186 -567h-227z" />
<glyph unicode="X" d="M-31 0l512 610l-501 584h262l372 -426l365 426h262l-496 -586l517 -608h-265l-381 451l-380 -451h-267z" />
<glyph unicode="Y" d="M31 1194h245l338 -481l334 481h246l-477 -692v-502h-205v502z" />
<glyph unicode="Z" d="M150 0v205l618 784h-571v205h835v-199l-620 -790h669v-205h-931z" />
<glyph unicode="[" d="M512 -303v1587h324q64 0 94 -18q41 -30 41 -84q0 -27 -13 -51t-36 -37q-24 -15 -86 -15h-119v-1177h121q65 0 92 -19q43 -32 43 -84q0 -56 -49 -88q-22 -14 -86 -14h-326z" />
<glyph unicode="\" d="M170 1325q0 39 30.5 68.5t71.5 29.5q36 0 59 -19t46 -71l657 -1388q25 -51 25 -78q0 -38 -31.5 -68t-71.5 -30q-37 0 -59 19t-47 71l-655 1390q-25 51 -25 76z" />
<glyph unicode="]" d="M256 1182q0 56 49 88q22 14 86 14h326v-1587h-324q-64 0 -94 18q-41 30 -41 84q0 27 13 51t36 37q24 15 86 15h119v1177h-121q-65 0 -92 19q-43 32 -43 84z" />
<glyph unicode="^" d="M170 768q0 23 8.5 40.5t36.5 49.5l397 477l402 -477q28 -32 36.5 -49.5t8.5 -40.5q0 -41 -31 -71.5t-72 -30.5q-30 0 -49 11.5t-51 49.5l-244 285l-239 -283q-34 -40 -52 -51.5t-49 -11.5q-41 0 -71.5 30.5t-30.5 71.5z" />
<glyph unicode="_" d="M-25 -154h1278v-102h-1278v102z" />
<glyph unicode="`" d="M256 1352q0 31 22 52t54 21q17 0 28.5 -5.5t36.5 -26.5l273 -228q47 -38 47 -75q0 -29 -22.5 -51.5t-53.5 -22.5q-25 0 -66 33l-272 229q-47 36 -47 74z" />
<glyph unicode="a" d="M86 244q0 100 80 190q141 156 416 156q87 0 213 -21v47q0 52 -46 76.5t-145 24.5q-105 0 -237 -35q-52 -12 -82 -12q-43 0 -72 30t-29 74q0 65 62 86q74 26 175 44t177 18q189 0 296 -80.5t107 -223.5v-618h-206v47q-154 -80 -340 -80q-152 0 -260.5 81.5t-108.5 195.5z M303 252q0 -34 45 -57t111 -23q170 0 338 104v103q-129 22 -228 22q-104 0 -185 -45.5t-81 -103.5z" />
<glyph unicode="b" d="M152 0v1278h204v-457q129 103 308 103q223 0 362 -133q143 -137 143 -345q0 -202 -143 -342q-139 -133 -360 -133q-91 0 -161 23t-149 78v-72h-204zM356 451q0 -121 85.5 -198t220.5 -77q138 0 223 82q80 80 80 191q0 105 -80 188q-85 82 -223 82q-144 0 -226 -82 q-80 -80 -80 -186z" />
<glyph unicode="c" d="M111 424q0 220 146 359t378 139q162 0 295 -62q73 -34 125 -108.5t52 -144.5q0 -38 -20 -70q-28 -43 -83 -43q-46 0 -74 28q-19 14 -31 70q-11 50 -47 74q-82 51 -217 51q-153 0 -238 -88q-82 -82 -82 -205q0 -252 361 -252q132 0 215 27q28 9 44 19t58 44q28 25 62 25 q41 0 71.5 -31t30.5 -74q0 -82 -131 -149q-135 -66 -364 -66q-148 0 -249.5 34t-176.5 108q-125 125 -125 315z" />
<glyph unicode="d" d="M68 449q0 205 143 342q139 133 364 133q179 0 308 -103v457h204v-1278h-204v72q-82 -56 -151 -78.5t-159 -22.5q-223 0 -362 133q-143 140 -143 345zM272 449q0 -108 80 -191q85 -82 226 -82q140 0 225 82q80 80 80 186q0 113 -80 193q-85 82 -228 82q-141 0 -223 -82 q-80 -80 -80 -188z" />
<glyph unicode="e" d="M68 442q0 133 69 243t190.5 173.5t268.5 63.5q229 0 379.5 -139t150.5 -351v-80h-835q69 -180 336 -180q72 0 133.5 10.5t200.5 46.5q46 11 67 11q41 0 69.5 -30t28.5 -73q0 -59 -71 -92q-69 -31 -204 -54.5t-243 -23.5q-238 0 -389 133t-151 342zM297 532h602 q-25 85 -106.5 135t-194.5 50q-112 0 -195 -51t-106 -134z" />
<glyph unicode="f" d="M176 793q0 27 13 51t36 37q21 14 88 14h95v76q0 141 106 223t289 82q65 0 148 -10t132 -23q86 -22 86 -96q0 -44 -28 -74.5t-68 -30.5q-13 0 -57 7q-128 22 -232 22q-172 0 -172 -100v-76h310q66 0 92 -18q43 -32 43 -84q0 -56 -49 -88q-24 -15 -86 -15h-310v-690h-204 v690h-97q-68 0 -92 21q-43 29 -43 82z" />
<glyph unicode="g" d="M68 446q0 204 138.5 341t344.5 137q168 0 289 -103v74h204v-936q0 -163 -112 -271t-279 -108h-229q-68 0 -92 21q-43 29 -43 82q0 27 13 51t36 37q21 14 86 14h223q88 0 140.5 47.5t52.5 126.5v113q-136 -101 -289 -101q-206 0 -344.5 136.5t-138.5 338.5zM272 449 q0 -114 83 -193.5t200 -79.5t201 79t84 189q0 116 -82.5 195.5t-202.5 79.5q-117 0 -200 -79t-83 -191z" />
<glyph unicode="h" d="M195 0l2 1278h202v-481q122 125 281 125q163 0 262.5 -93t99.5 -247v-582h-204v555q0 53 -8.5 77t-34.5 46q-47 39 -138 39q-72 0 -121 -26t-137 -111v-580h-204z" />
<glyph unicode="i" d="M215 793q0 27 13 51t36 37q21 14 88 14h365v-895h-205v690h-160q-70 0 -94 21q-43 29 -43 82zM446 1061v215h242v-215h-242z" />
<glyph unicode="j" d="M240 -317q0 26 13.5 50t35.5 38q21 14 86 14h227q88 0 140.5 47.5t52.5 126.5v731h-414q-68 0 -92 21q-43 29 -43 82q0 27 13 51t36 37q21 14 86 14h618v-936q0 -161 -112 -270t-279 -109h-233q-68 0 -92 21q-43 29 -43 82zM637 1061v215h244v-215h-244z" />
<glyph unicode="k" d="M236 0v1278h204v-690l385 307h303l-491 -401l561 -494h-309l-412 365l-37 -29v-336h-204z" />
<glyph unicode="l" d="M215 1176q0 60 49 88q21 14 88 14h365v-1278h-205v1073h-160q-70 0 -94 21q-43 27 -43 82z" />
<glyph unicode="m" d="M82 0v895h207v-49q55 43 92 59.5t82 16.5q118 0 209 -101q91 101 213 101q115 0 191.5 -76.5t76.5 -192.5v-653h-205v637q0 44 -15.5 62t-55.5 18t-72 -18.5t-84 -73.5v-625h-205v637q0 43 -17 61.5t-55 18.5q-42 0 -76 -20t-79 -72v-625h-207z" />
<glyph unicode="n" d="M197 0v895h202v-98q73 70 134.5 97.5t146.5 27.5q139 0 244 -76q120 -89 120 -268v-578h-204v569q0 75 -45 111.5t-140 36.5q-71 0 -127.5 -30.5t-128.5 -108.5v-578h-202z" />
<glyph unicode="o" d="M86 444q0 133 70 242.5t193 172.5t272 63q142 0 262.5 -64t190 -174t69.5 -240q0 -131 -70 -240.5t-192 -173t-267 -63.5t-266.5 63.5t-191.5 173t-70 240.5zM291 444q0 -115 93 -193.5t230 -78.5t230.5 78.5t93.5 193.5q0 114 -93 193.5t-227 79.5q-140 0 -233.5 -78 t-93.5 -195z" />
<glyph unicode="p" d="M152 -420v1315h204v-92q75 65 147 92t167 27q215 0 357 -132.5t142 -330.5q0 -189 -140.5 -314t-354.5 -125q-91 0 -164.5 26.5t-153.5 88.5v-555h-204zM356 473q0 -109 85.5 -178.5t220.5 -69.5q132 0 217.5 69.5t85.5 176.5q0 51 -27.5 102.5t-71.5 83.5 q-78 60 -204 60q-129 0 -207 -60q-44 -32 -71.5 -83t-27.5 -101z" />
<glyph unicode="q" d="M68 459q0 200 142 331.5t357 131.5q97 0 169 -27t147 -92v92h204v-1315h-204v555q-79 -61 -154 -88t-166 -27q-214 0 -354.5 125t-140.5 314zM272 471q0 -51 27 -101.5t72 -84.5q78 -60 207 -60q128 0 206 60q44 34 71.5 84.5t27.5 99.5q0 109 -86 178.5t-222 69.5 q-122 0 -204 -60q-45 -34 -72 -84.5t-27 -101.5z" />
<glyph unicode="r" d="M365 0v895h204v-133q122 92 194.5 125t147.5 33q108 0 201 -78q32 -26 44.5 -47.5t12.5 -49.5q0 -43 -30.5 -73.5t-71.5 -30.5q-38 0 -80 37t-80 37q-49 0 -119.5 -44t-218.5 -165v-506h-204z" />
<glyph unicode="s" d="M150 238q0 35 20 61q32 43 84 43q77 0 104 -90q89 -80 256 -80q98 0 169 26.5t71 61.5q0 20 -19 40t-51 32q-50 20 -188 35q-215 23 -311.5 88t-96.5 186q0 123 118.5 202t303.5 79q153 0 264 -54q70 -34 116 -83.5t46 -104.5q0 -32 -18 -64q-13 -19 -36.5 -30t-47.5 -11 q-60 0 -96 64l-11 18q-83 60 -211 60q-78 0 -140 -22t-62 -50q0 -30 53 -49q36 -12 172 -31q208 -27 297 -78q67 -37 105 -98.5t38 -132.5q0 -126 -129 -207.5t-327 -81.5q-167 0 -304 60q-73 32 -121 92.5t-48 118.5z" />
<glyph unicode="t" d="M27 793q0 27 13 51t36 37q21 14 86 14h71v180q0 68 21 94q30 41 82 41q27 0 51 -13t37 -36q14 -21 14 -86v-180h371q64 0 94 -18q41 -33 41 -84q0 -27 -13 -51t-36 -37q-24 -15 -86 -15h-371v-401q0 -56 17 -76q38 -41 159 -41q162 0 299 70q43 22 72 22q41 0 69.5 -30.5 t28.5 -73.5q0 -37 -22 -61t-80 -50q-74 -35 -181.5 -58.5t-187.5 -23.5q-175 0 -277 76.5t-102 206.5v440h-71q-68 0 -94 21q-41 30 -41 82z" />
<glyph unicode="u" d="M195 319v576h204v-569q0 -148 181 -148q77 0 129 27.5t131 111.5v578h204v-895h-204v98q-76 -72 -136 -98.5t-145 -26.5q-142 0 -244 76q-120 89 -120 270z" />
<glyph unicode="v" d="M61 895h230l327 -645l322 645h223l-444 -895h-213z" />
<glyph unicode="w" d="M59 895h217l132 -516l122 323h181l125 -323l135 516h203l-224 -895h-188l-146 371l-139 -371h-192z" />
<glyph unicode="x" d="M-78 0l529 467l-504 428h297l368 -295l363 295h305l-516 -430l557 -465h-303l-406 330l-393 -330h-297z" />
<glyph unicode="y" d="M37 895h235l338 -662l357 662h219l-684 -1315h-223l217 426z" />
<glyph unicode="z" d="M174 0v170l535 520h-510v205h837v-166l-536 -524h563v-205h-889z" />
<glyph unicode="{" d="M342 492q0 93 100 102q39 4 52.5 20t13.5 58v336q0 108 79 188t185 80q52 0 83.5 -28t31.5 -74q0 -43 -28.5 -72.5t-72.5 -32.5q-42 -1 -57.5 -17.5t-15.5 -58.5v-321q0 -65 -12 -101t-48 -79q37 -44 48.5 -83t11.5 -118v-322q0 -41 15 -56.5t58 -18.5q44 -3 72.5 -32.5 t28.5 -72.5q0 -46 -31 -74t-82 -28q-107 0 -186.5 79.5t-79.5 188.5v354q0 43 -13 58t-53 20q-100 12 -100 105z" />
<glyph unicode="|" d="M512 -178v1317q0 68 18 94q33 41 84 41q27 0 51 -13t37 -36q15 -27 15 -86v-1317q0 -65 -19 -92q-32 -43 -84 -43q-56 0 -88 49q-14 22 -14 86z" />
<glyph unicode="}" d="M342 -211q0 43 28 72.5t72 32.5q43 1 58.5 17.5t15.5 57.5v322q0 66 12 101.5t47 78.5q-37 44 -48 82.5t-11 118.5v321q0 41 -15.5 57t-58.5 19q-44 3 -72 32.5t-28 72.5q0 46 31 74t82 28q107 0 186.5 -79.5t79.5 -188.5v-355q0 -43 12.5 -58.5t52.5 -19.5 q101 -12 101 -104q0 -45 -26 -71.5t-75 -30.5q-39 -4 -52 -20t-13 -58v-336q0 -108 -79 -188t-185 -80q-52 0 -83.5 28t-31.5 74z" />
<glyph unicode="~" d="M127 516q0 54 80 143q60 69 113 99t116 30q65 0 121.5 -31.5t159.5 -127.5q56 -47 80 -47q17 0 39 21t61 73q31 41 51 55t51 14q41 0 72 -30.5t31 -71.5q0 -31 -16.5 -60t-67.5 -89q-57 -68 -107 -97.5t-110 -29.5t-124.5 35t-156.5 118q-64 55 -86 55q-15 0 -35 -18 t-61 -68q-39 -49 -59 -63t-48 -14q-41 0 -72.5 31.5t-31.5 72.5z" />
<glyph unicode="&#xa0;" />
<glyph unicode="&#xa1;" d="M451 -301q0 18 4 68l59 608q4 47 30.5 73.5t69.5 26.5t70.5 -27t32.5 -73l59 -608q4 -54 4 -68q0 -71 -47 -117.5t-119 -46.5q-70 0 -116.5 46.5t-46.5 117.5zM461 737q0 57 40 96t97 39h35q57 0 96 -39t39 -96t-39 -96t-96 -39h-35q-57 0 -97 39t-40 96z" />
<glyph unicode="&#xa2;" d="M170 639q0 149 96 266t248 154v158q0 68 21 94q30 43 81 43q27 0 51.5 -13t37.5 -36q14 -21 14 -88v-138q51 -8 79 -17t70 -32q58 -32 102 -99.5t44 -133.5q0 -40 -19 -72q-32 -43 -84 -43q-40 0 -71 27q-11 13 -15 23t-16 54q-20 88 -154 88q-121 0 -200.5 -68 t-79.5 -171q0 -97 75 -164.5t185 -67.5q113 0 215 74q39 25 70 25q40 0 71 -32t31 -73q0 -64 -83.5 -117.5t-219.5 -76.5v-158q0 -65 -19 -92q-32 -43 -84 -43q-56 0 -88 49q-14 22 -14 86v166q-158 38 -251 154t-93 274z" />
<glyph unicode="&#xa3;" d="M68 600q0 27 13 51t36 37q21 14 86 14h90q-35 104 -35 183q0 149 99.5 244.5t254.5 95.5q120 0 222 -66.5t102 -144.5q0 -43 -29.5 -74t-70.5 -31q-29 0 -45.5 10t-51.5 48q-47 53 -129 53q-63 0 -105 -35.5t-42 -89.5q0 -33 5.5 -60.5t35.5 -132.5h139q68 0 94 -18 q43 -32 43 -84q0 -56 -49 -88q-25 -14 -88 -14h-92q2 -25 2 -56q0 -122 -47 -237h416q12 94 100 94q47 0 75.5 -31.5t28.5 -83.5q0 -89 -57 -136.5t-164 -47.5h-657q-66 0 -92 20q-43 29 -43 84q0 42 24.5 66.5t77.5 34.5q38 8 58.5 22t33.5 43q39 74 39 189q0 23 -2 39 h-141q-69 0 -92 18q-43 32 -43 84z" />
<glyph unicode="&#xa4;" d="M150 236q0 26 9.5 43.5t43.5 52.5l65 69q-29 56 -40 99t-11 98q0 56 11 99t40 98l-67 65q-51 51 -51 101q0 41 30.5 71.5t73.5 30.5q26 0 43.5 -9.5t52.5 -43.5l66 -64q56 30 99 41.5t99 11.5q55 0 98.5 -12t100.5 -43l64 62q33 33 51 43t45 10q43 0 73.5 -31t30.5 -74 q0 -26 -9.5 -43t-43.5 -51l-63 -65q29 -56 40 -99t11 -98q0 -54 -11.5 -97t-42.5 -100l68 -69q32 -32 42.5 -50.5t10.5 -43.5q0 -43 -31.5 -75t-74.5 -32q-26 0 -43 9.5t-51 43.5l-70 66q-55 -29 -97.5 -40t-97.5 -11q-56 0 -97.5 11t-98.5 42l-68 -66q-35 -35 -52.5 -45 t-43.5 -10q-43 0 -73.5 31t-30.5 74zM422 600q0 -80 57 -138.5t135 -58.5t135.5 58.5t57.5 136.5q0 83 -55.5 140t-137.5 57q-80 0 -136 -56.5t-56 -138.5z" />
<glyph unicode="&#xa5;" d="M39 1188h246l331 -475l340 475h240l-428 -613h147q64 0 64 -57t-64 -57h-198v-70h198q64 0 64 -57q0 -58 -64 -58h-198v-276h-205v276h-199q-63 0 -63 58q0 57 63 57h199v70h-199q-63 0 -63 57t63 57h148z" />
<glyph unicode="&#xa6;" d="M512 -178v416q0 68 18 94q33 41 84 41q27 0 51 -13t37 -36q15 -27 15 -86v-416q0 -65 -19 -92q-32 -43 -84 -43q-56 0 -88 49q-14 22 -14 86zM512 723v416q0 69 18 92q32 43 84 43q41 0 68 -24.5t33 -67.5q2 -23 2 -43v-416q0 -65 -19 -92q-32 -43 -84 -43q-27 0 -51 13 t-37 36q-14 22 -14 86z" />
<glyph unicode="&#xa7;" d="M74 580q0 90 53.5 152.5t153.5 90.5q-11 34 -11 62q0 122 86 211q47 52 105.5 75t140.5 23h461v-186l-475 2q-60 0 -102 -32t-42 -77q0 -75 220 -201l188 -104q179 -99 241 -167.5t62 -164.5q0 -94 -54.5 -157.5t-154.5 -86.5q10 -44 10 -77q0 -106 -77 -195 q-46 -51 -102 -73.5t-138 -22.5h-473v180h477q55 0 96 33t41 76q0 78 -215 200l-217 125q-153 88 -213.5 157.5t-60.5 156.5zM270 598q0 -40 42.5 -82.5t133.5 -95.5l211 -119q137 -85 177 -121h12h22q39 2 64.5 20.5t25.5 47.5q0 35 -51.5 85t-146.5 105l-203 117 q-74 41 -164 113q-123 0 -123 -70z" />
<glyph unicode="&#xa8;" d="M279 1217q0 51 35.5 86.5t86.5 35.5q52 0 87.5 -36t35.5 -89q0 -50 -36 -85t-87 -35t-86.5 36t-35.5 87zM705 1217q0 51 35.5 86.5t86.5 35.5q52 0 87.5 -36t35.5 -89q0 -50 -36 -85t-87 -35t-86.5 36t-35.5 87z" />
<glyph unicode="&#xa9;" d="M-14 598q0 127 49.5 243.5t133.5 200.5t200 133.5t243 49.5q171 0 316 -84t229 -228.5t84 -314.5q0 -172 -84.5 -317t-230.5 -228.5t-320 -83.5q-166 0 -309 85t-227 230t-84 314zM135 598q0 -129 64 -239.5t173 -175t236 -64.5q133 0 244.5 63.5t175.5 173.5t64 242 q0 130 -64.5 240t-174.5 173.5t-239 63.5q-199 0 -339 -139.5t-140 -337.5zM276 551v74q0 141 91.5 235t228.5 94q84 0 162 -39q58 -25 91 -74t33 -98q0 -35 -18.5 -57t-52.5 -22q-32 0 -49 17t-25 56q-5 29 -45 50.5t-92 21.5q-78 0 -128 -52t-50 -134v-70q0 -75 54 -120.5 t145 -45.5q60 0 89 11t64 48q23 23 51 23q29 0 51.5 -22.5t22.5 -51.5q0 -60 -86 -106.5t-195 -46.5q-148 0 -245 88t-97 221z" />
<glyph unicode="&#xaa;" d="M242 756q0 69 57 133q96 108 299 108q53 0 127 -10v17q0 29 -28 42t-91 13q-67 0 -162 -23q-38 -10 -57 -10q-32 0 -55 24t-23 58q0 51 49 70q115 41 240 41q137 0 212 -56t75 -159v-263h12q54 0 79 -19t25 -60q0 -80 -102 -80h-174v22q-112 -45 -221 -45t-185.5 57.5 t-76.5 139.5zM254 465q0 38 21.5 51.5t84.5 13.5h523q55 0 80.5 -18.5t25.5 -58.5q0 -80 -104 -80h-525q-67 0 -86.5 16.5t-19.5 75.5zM428 766q0 -20 24.5 -32.5t63.5 -12.5q50 0 110 18t99 45v56q-77 14 -135 14q-65 0 -113.5 -26.5t-48.5 -61.5z" />
<glyph unicode="&#xab;" d="M68 446l507 377q34 27 60 27t45.5 -18.5t19.5 -43.5q0 -29 -32 -55l-310 -287l310 -288q32 -28 32 -56q0 -25 -19.5 -43t-47.5 -18q-24 0 -58 27zM537 446l507 377q34 27 60 27t45.5 -18.5t19.5 -43.5q0 -29 -32 -55l-310 -287l310 -288q32 -28 32 -56q0 -25 -19.5 -43 t-47.5 -18q-24 0 -58 27z" />
<glyph unicode="&#xac;" d="M86 809q0 27 13 51t36 37q21 14 86 14h731v-540q0 -66 -18 -92q-32 -43 -84 -43q-27 0 -51 13t-37 36q-14 25 -14 86v336h-527q-70 0 -92 20q-43 29 -43 82z" />
<glyph unicode="&#xad;" d="M86 571q0 56 49 88q23 15 86 15h787q67 0 94 -19q41 -30 41 -84q0 -27 -13 -51t-36 -37q-22 -14 -86 -14h-787q-69 0 -92 18q-43 32 -43 84z" />
<glyph unicode="&#xae;" d="M-14 598q0 127 50 243t134 200t200.5 134t243.5 50q169 0 313.5 -84t229 -228.5t84.5 -314.5q0 -172 -84.5 -317t-230.5 -228.5t-320 -83.5q-166 0 -309 85t-227 230t-84 314zM135 598q0 -129 64 -239.5t173 -175t236 -64.5q133 0 244.5 63.5t175.5 173.5t64 242 q0 129 -64.5 239t-174.5 174t-239 64q-97 0 -186 -38t-153 -102t-102 -152t-38 -185zM403 258v680h195q115 0 187.5 -59.5t72.5 -153.5q0 -57 -34 -105.5t-91 -74.5q117 -108 160 -287h-150q-19 75 -68.5 150.5t-92.5 95.5h-31v-246h-148zM551 647h51q47 0 79 23t32 57 q0 30 -30 48t-81 18h-51v-146z" />
<glyph unicode="&#xaf;" d="M256 1200q0 39 28.5 60.5t80.5 21.5h499q67 0 86 -22q9 -10 16 -29t7 -31q0 -38 -29 -60t-80 -22h-499q-38 0 -55 5t-31 20q-23 31 -23 57z" />
<glyph unicode="&#xb0;" d="M256 860q0 150 104.5 255.5t253.5 105.5t254 -106t105 -255q0 -152 -105.5 -257t-257.5 -105q-145 0 -249.5 106.5t-104.5 255.5zM381 860q0 -97 68.5 -167t162.5 -70q98 0 167 69.5t69 167.5q0 97 -68.5 166.5t-165.5 69.5q-96 0 -164.5 -69.5t-68.5 -166.5z" />
<glyph unicode="&#xb1;" d="M86 102q0 26 13.5 50t35.5 38q23 15 86 15h787q65 0 92 -19q43 -32 43 -84q0 -27 -13 -51t-36 -37q-22 -14 -86 -14h-787q-70 0 -92 20q-43 29 -43 82zM86 778q0 26 13.5 50t35.5 38q23 15 86 15h291v262q0 69 20 92q29 43 82 43q27 0 51 -13t37 -36q15 -23 15 -86v-262 h289q67 0 94 -19q43 -32 43 -84q0 -27 -13 -51t-36 -37q-22 -14 -88 -14h-289v-205q0 -65 -19 -92q-32 -43 -84 -43q-26 0 -50 13.5t-38 35.5q-14 25 -14 86v205h-291q-70 0 -92 20q-43 29 -43 82z" />
<glyph unicode="&#xb2;" d="M305 506v139q198 164 283.5 239.5t115 113t29.5 67.5q0 43 -38 72.5t-95 29.5q-75 0 -115 -49q-12 -15 -24 -53q-6 -18 -23.5 -29.5t-38.5 -11.5q-29 0 -49 20t-20 48q0 31 22 71.5t54 69.5q82 72 196 72q115 0 191.5 -70t76.5 -176q0 -55 -26 -100.5t-96.5 -113.5 t-229.5 -202h361v-137h-574z" />
<glyph unicode="&#xb3;" d="M322 598q0 29 19.5 49.5t47.5 20.5q21 0 45 -17q40 -26 146 -26q188 0 188 106q0 32 -25 62t-65 49q-30 12 -92 14q-33 3 -51.5 21t-18.5 47t20 48t50 19h51q41 0 72.5 27.5t31.5 62.5q0 40 -35 63t-94 23q-51 0 -79.5 -11.5t-57.5 -43.5q-20 -20 -49 -20q-28 0 -48 20.5 t-20 48.5q0 57 79 100.5t181 43.5q112 0 186.5 -63.5t74.5 -158.5q0 -47 -26.5 -89t-72.5 -72q-4 -2 -6 -4q63 -32 97 -82t34 -109q0 -51 -25.5 -100.5t-68.5 -81.5q-79 -58 -227 -58q-120 0 -191 30t-71 81z" />
<glyph unicode="&#xb4;" d="M512 1090q0 37 47 75l272 228q25 20 37 26t29 6q32 0 54 -21.5t22 -53.5q0 -36 -47 -72l-273 -229q-41 -33 -65 -33q-31 0 -53.5 22.5t-22.5 51.5z" />
<glyph unicode="&#xb6;" d="M100 739v95q0 149 153.5 254.5t371.5 105.5h403q111 0 111 -80t-111 -80h-70v-1390h-155v1390h-90v-1390h-160v735q-198 20 -325.5 121.5t-127.5 238.5zM332 739q0 -69 59 -120.5t162 -73.5v479q-103 -22 -162 -74t-59 -121v-90z" />
<glyph unicode="&#xb7;" d="M461 573q0 56 40 96t95 40h37q57 0 96 -39.5t39 -96.5t-39 -96t-96 -39h-37q-56 0 -95.5 40t-39.5 95z" />
<glyph unicode="&#xb8;" d="M369 -340q0 29 21 50.5t50 21.5q17 0 60 -23q65 -35 116 -35q74 0 74 52q0 33 -28 51t-80 18q-18 0 -45 -4v209h143v-84q154 -34 154 -186q0 -87 -62 -143t-158 -56q-41 0 -96 14.5t-92 34.5q-57 34 -57 80z" />
<glyph unicode="&#xb9;" d="M344 1167q0 29 15.5 44t54.5 26l270 70v-801h-137v622l-98 -24q-31 -8 -41 -8q-26 0 -45 21t-19 50z" />
<glyph unicode="&#xba;" d="M250 453q0 42 37 65q19 12 69 12h521q55 0 80.5 -18.5t25.5 -58.5q0 -80 -106 -80h-521q-106 0 -106 80zM268 881q0 138 103 238t245 100q146 0 247.5 -99.5t101.5 -242.5q0 -130 -103 -224t-246 -94q-145 0 -246.5 94t-101.5 228zM430 881q0 -64 56 -113t130 -49 t130.5 49t56.5 113q0 72 -56 125t-131 53t-130.5 -53t-55.5 -125z" />
<glyph unicode="&#xbb;" d="M68 102q0 30 32 56l310 286l-310 289q-32 28 -32 55q0 25 19.5 43.5t47.5 18.5q24 0 58 -27l505 -379l-505 -376q-34 -27 -60 -27t-45.5 18t-19.5 43zM539 102q0 30 32 56l310 286l-310 289q-32 28 -32 55q0 25 19.5 43.5t47.5 18.5q24 0 58 -27l505 -379l-505 -376 q-34 -27 -60 -27t-45.5 18t-19.5 43z" />
<glyph unicode="&#xbc;" d="M-66 1167q0 29 15.5 44t54.5 26l270 70v-801h-137v622l-98 -24q-31 -8 -41 -8q-26 0 -45 21t-19 50zM297 172q0 20 20 53l533 924q19 31 34 42t38 11q26 0 47.5 -20t21.5 -45q0 -19 -22 -56l-533 -923q-18 -30 -33 -42t-36 -12q-28 0 -49 21t-21 47zM741 170v113l299 495 h172v-471q36 -2 56 -19.5t20 -47.5q0 -31 -20 -50t-56 -20v-170h-137v170h-334zM913 307h162v264z" />
<glyph unicode="&#xbd;" d="M-66 1167q0 29 15.5 44t54.5 26l270 70v-801h-137v622l-98 -24q-31 -8 -41 -8q-26 0 -45 21t-19 50zM297 172q0 20 20 53l533 924q19 31 34 42t38 11q26 0 47.5 -20t21.5 -45q0 -19 -22 -56l-533 -923q-18 -30 -33 -42t-36 -12q-28 0 -49 21t-21 47zM715 0v139 q198 164 283.5 239.5t115 113t29.5 67.5q0 43 -38 73t-95 30q-74 0 -115 -50q-14 -17 -25 -53q-6 -18 -23 -29.5t-38 -11.5q-29 0 -49.5 20t-20.5 48q0 31 22 71.5t54 69.5q82 72 197 72t191.5 -70t76.5 -176q0 -55 -26 -100.5t-96.5 -113.5t-229.5 -202h360v-137h-573z" />
<glyph unicode="&#xbe;" d="M-88 598q0 29 20 49.5t48 20.5q21 0 45 -17q40 -26 145 -26q188 0 188 106q0 32 -25 62t-65 49q-30 12 -92 14q-33 3 -51.5 21t-18.5 47t20 48t50 19h51q41 0 73 27.5t32 62.5q0 40 -35 63t-94 23q-51 0 -79.5 -11.5t-57.5 -43.5q-20 -20 -50 -20q-28 0 -47.5 20.5 t-19.5 48.5q0 57 79 100.5t181 43.5q112 0 186 -63.5t74 -158.5q0 -98 -98 -161q-4 -2 -6 -4q63 -32 97 -82t34 -109q0 -51 -26 -100.5t-69 -81.5q-79 -58 -227 -58q-120 0 -191 30t-71 81zM297 172q0 19 20 53l535 924q17 31 32 42t38 11q26 0 47.5 -20t21.5 -45 q0 -18 -20 -56l-535 -923q-18 -30 -33 -42t-36 -12q-28 0 -49 20t-21 48zM741 170v113l299 495h172v-471q36 -2 56 -19.5t20 -47.5q0 -31 -20 -50t-56 -20v-170h-137v170h-334zM913 307h162v264z" />
<glyph unicode="&#xbf;" d="M170 -78q0 124 75 206.5t261 164.5q12 110 102 110q27 0 51 -13t37 -36q15 -27 15 -86v-114q-196 -75 -266 -125.5t-70 -116.5q0 -76 61.5 -124t159.5 -48q114 0 215 49l205 -133q-149 -72 -234 -96.5t-184 -24.5q-190 0 -309 107.5t-119 279.5zM457 655q0 57 39 96.5 t96 39.5h35q57 0 97 -40t40 -96t-40 -95.5t-97 -39.5h-35q-57 0 -96 39t-39 96z" />
<glyph unicode="&#xc0;" d="M10 0l486 1194h229l492 -1194h-238l-127 324h-487l-127 -324h-228zM289 1647q0 31 22 52t54 21q17 0 28.5 -5.5t36.5 -26.5l273 -228q47 -38 47 -75q0 -29 -22.5 -51.5t-53.5 -22.5q-25 0 -66 33l-272 229q-47 36 -47 74zM446 528h322l-160 394z" />
<glyph unicode="&#xc1;" d="M10 0l486 1194h229l492 -1194h-238l-127 324h-487l-127 -324h-228zM426 1385q0 37 47 75l272 228q25 20 37 26t29 6q32 0 54 -21.5t22 -53.5q0 -36 -47 -72l-273 -229q-41 -33 -65 -33q-31 0 -53.5 22.5t-22.5 51.5zM446 528h322l-160 394z" />
<glyph unicode="&#xc2;" d="M10 0l486 1194h229l492 -1194h-238l-127 324h-487l-127 -324h-228zM256 1383q0 22 7.5 32.5t41.5 38.5l311 264l310 -264q12 -8 18 -14q31 -24 31 -57q0 -28 -21 -50t-49 -22q-26 0 -59 26l-230 199l-231 -199q-33 -26 -57 -26q-29 0 -50.5 22t-21.5 50zM446 528h322 l-160 394z" />
<glyph unicode="&#xc3;" d="M10 0l486 1194h229l492 -1194h-238l-127 324h-487l-127 -324h-228zM201 1432q0 44 55 112q80 92 170 92q36 0 72 -15t112 -62q92 -54 119 -54q23 0 36 11.5t48 58.5q43 61 80 61q26 0 45.5 -17.5t19.5 -39.5q0 -42 -59 -117q-77 -98 -164 -98q-69 0 -203 88 q-40 27 -59.5 35t-42.5 8q-28 0 -48.5 -17t-64.5 -77q-22 -31 -53 -31q-26 0 -44.5 18.5t-18.5 43.5zM446 528h322l-160 394z" />
<glyph unicode="&#xc4;" d="M10 0l486 1194h229l492 -1194h-238l-127 324h-487l-127 -324h-228zM275 1512q0 51 35.5 86.5t86.5 35.5q52 0 87.5 -36t35.5 -89q0 -50 -36 -85t-87 -35t-86.5 36t-35.5 87zM446 528h322l-160 394zM701 1512q0 51 35.5 86.5t86.5 35.5q52 0 87.5 -36t35.5 -89 q0 -50 -36 -85t-87 -35t-86.5 36t-35.5 87z" />
<glyph unicode="&#xc5;" d="M10 0l486 1194h229l492 -1194h-238l-127 324h-487l-127 -324h-228zM327 1538q0 100 74.5 173t177.5 73q104 0 178 -73.5t74 -176.5q0 -98 -75.5 -171t-176.5 -73q-103 0 -177.5 73.5t-74.5 174.5zM436 1538q0 -56 42.5 -96.5t100.5 -40.5q57 0 100.5 40.5t43.5 94.5 q0 57 -42.5 98t-101.5 41q-58 0 -100.5 -40.5t-42.5 -96.5zM446 528h322l-160 394z" />
<glyph unicode="&#xc6;" d="M47 0l359 1194h808v-205h-462v-289h243v-202h-243v-293h505v-205h-710v324h-191l-94 -324h-215zM416 530h131v435z" />
<glyph unicode="&#xc7;" d="M68 510v135q0 245 161 411.5t396 166.5q86 0 145.5 -14.5t144.5 -55.5q88 -42 149 -126t61 -161q0 -40 -19 -71q-27 -43 -84 -43q-44 0 -72 28q-12 12 -17 27t-11 53q-8 37 -27.5 60.5t-63.5 48.5q-87 49 -198 49q-152 0 -256.5 -106t-104.5 -267v-131q0 -154 109.5 -246 t292.5 -92q150 0 227 47q17 9 26 17t52 53q33 33 74 33t71.5 -31t30.5 -74q0 -40 -41 -88t-108 -86q-118 -65 -316 -76v-57q154 -30 154 -184q0 -86 -61.5 -142.5t-153.5 -56.5q-54 0 -113 16.5t-100 44.5q-37 26 -37 68q0 29 21.5 50.5t50.5 21.5q14 0 59 -23 q56 -35 117 -35q73 0 73 52q0 32 -27.5 50.5t-74.5 18.5q-16 0 -51 -4v191q-92 19 -151 42t-115 64q-101 75 -157 185.5t-56 236.5z" />
<glyph unicode="&#xc8;" d="M193 0v1194h888v-205h-684v-289h377v-202h-377v-293h729v-205h-933zM289 1647q0 31 22 52t54 21q17 0 28.5 -5.5t36.5 -26.5l273 -228q47 -38 47 -75q0 -29 -22.5 -51.5t-53.5 -22.5q-25 0 -66 33l-272 229q-47 36 -47 74z" />
<glyph unicode="&#xc9;" d="M193 0v1194h888v-205h-684v-289h377v-202h-377v-293h729v-205h-933zM440 1385q0 37 47 75l272 228q25 20 37 26t29 6q32 0 54 -21.5t22 -53.5q0 -36 -47 -72l-273 -229q-41 -33 -65 -33q-31 0 -53.5 22.5t-22.5 51.5z" />
<glyph unicode="&#xca;" d="M193 0v1194h888v-205h-684v-289h377v-202h-377v-293h729v-205h-933zM238 1383q0 22 7.5 32.5t41.5 38.5l311 264l310 -264q12 -8 18 -14q31 -24 31 -57q0 -28 -21 -50t-49 -22q-26 0 -59 26l-230 199l-231 -199q-33 -26 -57 -26q-29 0 -50.5 22t-21.5 50z" />
<glyph unicode="&#xcb;" d="M193 0v1194h888v-205h-684v-289h377v-202h-377v-293h729v-205h-933zM261 1512q0 51 35.5 86.5t86.5 35.5q52 0 87.5 -36t35.5 -89q0 -50 -36 -85t-87 -35t-86.5 36t-35.5 87zM687 1512q0 51 35.5 86.5t86.5 35.5q52 0 87.5 -36t35.5 -89q0 -50 -36 -85t-87 -35t-86.5 36 t-35.5 87z" />
<glyph unicode="&#xcc;" d="M309 1647q0 31 22 52t54 21q17 0 28.5 -6t36.5 -26l273 -228q47 -39 47 -75q0 -29 -22.5 -51.5t-53.5 -22.5q-15 0 -28.5 7t-37.5 26l-272 229q-26 20 -36.5 36.5t-10.5 37.5zM512 0v1196h205v-1196h-205z" />
<glyph unicode="&#xcd;" d="M512 0v1196h205v-1196h-205zM512 1385q0 36 47 75l272 228q25 20 37 26t29 6q32 0 54 -21.5t22 -53.5q0 -36 -47 -72l-273 -229q-24 -19 -37 -26t-28 -7q-31 0 -53.5 22.5t-22.5 51.5z" />
<glyph unicode="&#xce;" d="M254 1383q0 22 7.5 32.5t41.5 38.5l311 264l310 -264q12 -8 18 -14q31 -24 31 -57q0 -28 -21 -50t-49 -22q-26 0 -59 26l-230 199l-231 -199q-33 -26 -57 -26q-29 0 -50.5 22t-21.5 50zM512 0v1196h205v-1196h-205z" />
<glyph unicode="&#xcf;" d="M279 1512q0 51 35.5 86.5t86.5 35.5q52 0 87.5 -36t35.5 -89q0 -50 -36 -85t-87 -35t-86.5 36t-35.5 87zM512 0v1196h205v-1196h-205zM705 1512q0 51 35.5 86.5t86.5 35.5q52 0 87.5 -36t35.5 -89q0 -50 -36 -85t-87 -35t-86.5 36t-35.5 87z" />
<glyph unicode="&#xd0;" d="M0 600q0 27 13 51t36 37q21 14 88 14h15v287q-60 0 -92.5 27t-32.5 76q0 27 13 51t36 37q21 14 88 14h434q147 0 268.5 -74.5t190.5 -205t69 -289.5v-97q0 -225 -143 -374q-75 -80 -171.5 -117t-229.5 -37h-420q-66 0 -92 20q-43 29 -43 82q0 49 33 76t92 27v293h-17 q-66 0 -92 20q-43 29 -43 82zM356 205h228q92 0 149.5 20.5t104.5 69.5q84 93 84 240v94q0 146 -93 256q-88 104 -247 104h-226v-287h152q66 0 92 -18q43 -30 43 -84q0 -102 -135 -102h-152v-293z" />
<glyph unicode="&#xd1;" d="M150 0v1194h204l529 -803v803h204v-1194h-202l-531 807v-807h-204zM234 1432q0 44 55 112q80 92 170 92q36 0 72 -15t112 -62q92 -54 119 -54q23 0 36 11.5t48 58.5q43 61 80 61q26 0 45.5 -17.5t19.5 -39.5q0 -42 -59 -117q-77 -98 -164 -98q-69 0 -203 88 q-40 27 -59.5 35t-42.5 8q-28 0 -48.5 -17t-64.5 -77q-22 -31 -53 -31q-26 0 -44.5 18.5t-18.5 43.5z" />
<glyph unicode="&#xd2;" d="M43 598q0 169 76.5 313t208 228t286.5 84q210 0 379 -158q193 -184 193 -477q0 -165 -77.5 -307.5t-209.5 -226t-285 -83.5q-155 0 -286.5 84t-208 228.5t-76.5 314.5zM248 598q0 -173 107.5 -297.5t258.5 -124.5q149 0 258 123.5t109 292.5q0 177 -107.5 301.5 t-259.5 124.5q-99 0 -183.5 -57t-133.5 -153.5t-49 -209.5zM313 1647q0 31 22 52t54 21q17 0 28.5 -5.5t36.5 -26.5l273 -228q47 -38 47 -75q0 -29 -22.5 -51.5t-53.5 -22.5q-25 0 -66 33l-272 229q-47 36 -47 74z" />
<glyph unicode="&#xd3;" d="M43 598q0 169 76.5 313t208 228t286.5 84q210 0 379 -158q193 -184 193 -477q0 -165 -77.5 -307.5t-209.5 -226t-285 -83.5q-155 0 -286.5 84t-208 228.5t-76.5 314.5zM248 598q0 -173 107.5 -297.5t258.5 -124.5q149 0 258 123.5t109 292.5q0 177 -107.5 301.5 t-259.5 124.5q-99 0 -183.5 -57t-133.5 -153.5t-49 -209.5zM453 1385q0 37 47 75l272 228q25 20 37 26t29 6q32 0 54 -21.5t22 -53.5q0 -36 -47 -72l-273 -229q-41 -33 -65 -33q-31 0 -53.5 22.5t-22.5 51.5z" />
<glyph unicode="&#xd4;" d="M43 598q0 169 76.5 313t208 228t286.5 84q210 0 379 -158q193 -184 193 -477q0 -165 -77.5 -307.5t-209.5 -226t-285 -83.5q-155 0 -286.5 84t-208 228.5t-76.5 314.5zM248 598q0 -173 107.5 -297.5t258.5 -124.5q149 0 258 123.5t109 292.5q0 177 -107.5 301.5 t-259.5 124.5q-99 0 -183.5 -57t-133.5 -153.5t-49 -209.5zM254 1383q0 22 7.5 32.5t41.5 38.5l311 264l310 -264q12 -8 18 -14q31 -24 31 -57q0 -28 -21 -50t-49 -22q-26 0 -59 26l-230 199l-231 -199q-33 -26 -57 -26q-29 0 -50.5 22t-21.5 50z" />
<glyph unicode="&#xd5;" d="M43 598q0 169 76.5 313t208 228t286.5 84q210 0 379 -158q193 -184 193 -477q0 -165 -77.5 -307.5t-209.5 -226t-285 -83.5q-155 0 -286.5 84t-208 228.5t-76.5 314.5zM248 598q0 -173 107.5 -297.5t258.5 -124.5q149 0 258 123.5t109 292.5q0 177 -107.5 301.5 t-259.5 124.5q-99 0 -183.5 -57t-133.5 -153.5t-49 -209.5zM250 1432q0 44 55 112q80 92 170 92q36 0 72 -15t112 -62q92 -54 119 -54q23 0 36 11.5t48 58.5q43 61 80 61q26 0 45.5 -17.5t19.5 -39.5q0 -42 -59 -117q-77 -98 -164 -98q-69 0 -203 88q-40 27 -59.5 35 t-42.5 8q-28 0 -48.5 -17t-64.5 -77q-22 -31 -53 -31q-26 0 -44.5 18.5t-18.5 43.5z" />
<glyph unicode="&#xd6;" d="M43 598q0 169 76.5 313t208 228t286.5 84q210 0 379 -158q193 -184 193 -477q0 -165 -77.5 -307.5t-209.5 -226t-285 -83.5q-155 0 -286.5 84t-208 228.5t-76.5 314.5zM248 598q0 -173 107.5 -297.5t258.5 -124.5q149 0 258 123.5t109 292.5q0 177 -107.5 301.5 t-259.5 124.5q-99 0 -183.5 -57t-133.5 -153.5t-49 -209.5zM279 1512q0 51 35.5 86.5t86.5 35.5q52 0 87.5 -36t35.5 -89q0 -50 -36 -85t-87 -35t-86.5 36t-35.5 87zM705 1512q0 51 35.5 86.5t86.5 35.5q52 0 87.5 -36t35.5 -89q0 -50 -36 -85t-87 -35t-86.5 36t-35.5 87z " />
<glyph unicode="&#xd7;" d="M205 268q0 25 10.5 43.5t42.5 50.5l211 211l-211 211q-33 34 -43 52.5t-10 44.5q0 41 30.5 71.5t71.5 30.5q24 0 43.5 -11t52.5 -42l211 -211l211 211q34 33 52.5 43t44.5 10q41 0 71.5 -30.5t30.5 -71.5q0 -25 -11 -44.5t-42 -52.5l-211 -211l211 -211q31 -31 42 -51 t11 -45q0 -41 -30.5 -71.5t-71.5 -30.5q-26 0 -45.5 10.5t-51.5 42.5l-211 211l-211 -211q-33 -31 -52.5 -42t-43.5 -11q-41 0 -71.5 30.5t-30.5 73.5z" />
<glyph unicode="&#xd8;" d="M18 -47q0 20 8.5 37t34.5 49l117 149q-137 180 -137 410q0 169 76.5 313t208.5 228t288 84q159 0 306 -99l94 119q30 39 48.5 51.5t47.5 12.5q40 0 69 -29.5t29 -69.5q0 -20 -8 -36.5t-33 -49.5l-106 -133q125 -165 125 -393q0 -169 -76.5 -313t-208.5 -228t-287 -84 q-150 0 -288 86l-111 -139q-31 -38 -49 -49.5t-47 -11.5q-41 0 -71 28t-30 68zM246 598q0 -132 65 -242l482 609q-89 53 -181 53q-99 0 -183.5 -57t-133.5 -153.5t-49 -209.5zM453 219q76 -43 161 -43q149 0 258 124t109 294q0 126 -55 225z" />
<glyph unicode="&#xd9;" d="M145 420v774h205v-793q0 -94 77.5 -159.5t186.5 -65.5t187 66t78 159v793h204v-774q0 -219 -172 -348q-131 -101 -297 -101t-297 101q-172 132 -172 348zM313 1647q0 31 22 52t54 21q17 0 28.5 -5.5t36.5 -26.5l273 -228q47 -38 47 -75q0 -29 -22.5 -51.5t-53.5 -22.5 q-25 0 -66 33l-272 229q-47 36 -47 74z" />
<glyph unicode="&#xda;" d="M145 420v774h205v-793q0 -94 77.5 -159.5t186.5 -65.5t187 66t78 159v793h204v-774q0 -219 -172 -348q-131 -101 -297 -101t-297 101q-172 132 -172 348zM453 1385q0 37 47 75l272 228q25 20 37 26t29 6q32 0 54 -21.5t22 -53.5q0 -36 -47 -72l-273 -229q-41 -33 -65 -33 q-31 0 -53.5 22.5t-22.5 51.5z" />
<glyph unicode="&#xdb;" d="M145 420v774h205v-793q0 -94 77.5 -159.5t186.5 -65.5t187 66t78 159v793h204v-774q0 -219 -172 -348q-131 -101 -297 -101t-297 101q-172 132 -172 348zM254 1383q0 22 7.5 32.5t41.5 38.5l311 264l310 -264q12 -8 18 -14q31 -24 31 -57q0 -28 -21 -50t-49 -22 q-26 0 -59 26l-230 199l-231 -199q-33 -26 -57 -26q-29 0 -50.5 22t-21.5 50z" />
<glyph unicode="&#xdc;" d="M145 420v774h205v-793q0 -94 77.5 -159.5t186.5 -65.5t187 66t78 159v793h204v-774q0 -219 -172 -348q-131 -101 -297 -101t-297 101q-172 132 -172 348zM279 1511q0 51 35.5 87t86.5 36q52 0 87.5 -36t35.5 -89q0 -50 -36 -85t-87 -35t-86.5 35.5t-35.5 86.5zM705 1511 q0 51 35.5 87t86.5 36q52 0 87.5 -36t35.5 -89q0 -50 -36 -85t-87 -35t-86.5 35.5t-35.5 86.5z" />
<glyph unicode="&#xdd;" d="M31 1194h245l338 -481l334 481h246l-477 -692v-502h-205v502zM459 1385q0 37 47 75l272 228q25 20 37 26t29 6q32 0 54 -21.5t22 -53.5q0 -36 -47 -72l-273 -229q-41 -33 -65 -33q-31 0 -53.5 22.5t-22.5 51.5z" />
<glyph unicode="&#xde;" d="M195 0v1194h204v-287h201q157 0 246.5 -28t152.5 -97q72 -78 72 -184q0 -108 -72 -186q-63 -69 -152.5 -97t-246.5 -28h-201v-287h-204zM399 492h269q102 0 148 24.5t46 79.5q0 57 -45.5 81.5t-148.5 24.5h-269v-210z" />
<glyph unicode="&#xdf;" d="M195 0v979q0 130 99.5 213.5t254.5 83.5t259.5 -98t104.5 -244q0 -57 -15 -97t-56 -89q118 -69 179.5 -174.5t61.5 -235.5q0 -166 -87.5 -268.5t-229.5 -102.5q-106 0 -175 65.5t-69 166.5q0 57 27.5 88.5t75.5 31.5q46 0 71 -28q7 -8 10 -12.5t6.5 -15.5t8.5 -32 q12 -59 61 -59q43 0 70 45.5t27 118.5q0 113 -84 194q-41 40 -93.5 61t-132.5 30q-112 12 -112 102q0 43 28 69.5t80 30.5q64 7 92 27q52 32 52 90q0 57 -45 94t-115 37q-73 0 -111.5 -32.5t-38.5 -94.5v-944h-204z" />
<glyph unicode="&#xe0;" d="M86 244q0 100 80 190q141 156 416 156q87 0 213 -21v47q0 52 -46 76.5t-145 24.5q-105 0 -237 -35q-52 -12 -82 -12q-43 0 -72 30t-29 74q0 65 62 86q74 26 175 44t177 18q189 0 296 -80.5t107 -223.5v-618h-206v47q-154 -80 -340 -80q-152 0 -260.5 81.5t-108.5 195.5z M281 1352q0 31 22 52t54 21q17 0 28.5 -5.5t36.5 -26.5l273 -228q47 -38 47 -75q0 -29 -22.5 -51.5t-53.5 -22.5q-25 0 -66 33l-272 229q-47 36 -47 74zM303 252q0 -34 45 -57t111 -23q170 0 338 104v103q-129 22 -228 22q-104 0 -185 -45.5t-81 -103.5z" />
<glyph unicode="&#xe1;" d="M86 244q0 100 80 190q141 156 416 156q87 0 213 -21v47q0 52 -46 76.5t-145 24.5q-105 0 -237 -35q-52 -12 -82 -12q-43 0 -72 30t-29 74q0 65 62 86q74 26 175 44t177 18q189 0 296 -80.5t107 -223.5v-618h-206v47q-154 -80 -340 -80q-152 0 -260.5 81.5t-108.5 195.5z M303 252q0 -34 45 -57t111 -23q170 0 338 104v103q-129 22 -228 22q-104 0 -185 -45.5t-81 -103.5zM444 1090q0 37 47 75l272 228q25 20 37 26t29 6q32 0 54 -21.5t22 -53.5q0 -36 -47 -72l-273 -229q-41 -33 -65 -33q-31 0 -53.5 22.5t-22.5 51.5z" />
<glyph unicode="&#xe2;" d="M86 244q0 100 80 190q141 156 416 156q87 0 213 -21v47q0 52 -46 76.5t-145 24.5q-105 0 -237 -35q-52 -12 -82 -12q-43 0 -72 30t-29 74q0 65 62 86q74 26 175 44t177 18q189 0 296 -80.5t107 -223.5v-618h-206v47q-154 -80 -340 -80q-152 0 -260.5 81.5t-108.5 195.5z M233 1090q0 22 7.5 32.5t41.5 38.5l311 264l310 -264q12 -8 18 -14q31 -24 31 -57q0 -28 -21 -50t-49 -22q-26 0 -59 26l-230 199l-231 -199q-33 -26 -57 -26q-29 0 -50.5 22t-21.5 50zM303 252q0 -34 45 -57t111 -23q170 0 338 104v103q-129 22 -228 22q-104 0 -185 -45.5 t-81 -103.5z" />
<glyph unicode="&#xe3;" d="M86 244q0 100 80 190q141 156 416 156q87 0 213 -21v47q0 52 -46 76.5t-145 24.5q-105 0 -237 -35q-52 -12 -82 -12q-43 0 -72 30t-29 74q0 65 62 86q74 26 175 44t177 18q189 0 296 -80.5t107 -223.5v-618h-206v47q-154 -80 -340 -80q-152 0 -260.5 81.5t-108.5 195.5z M222 1139q0 44 55 112q80 92 170 92q36 0 72 -15t112 -62q92 -54 119 -54q23 0 36 11.5t48 58.5q43 61 80 61q26 0 45.5 -17.5t19.5 -39.5q0 -42 -59 -117q-77 -98 -164 -98q-69 0 -203 88q-40 27 -59.5 35t-42.5 8q-28 0 -48.5 -17t-64.5 -77q-22 -31 -53 -31 q-26 0 -44.5 18.5t-18.5 43.5zM303 252q0 -34 45 -57t111 -23q170 0 338 104v103q-129 22 -228 22q-104 0 -185 -45.5t-81 -103.5z" />
<glyph unicode="&#xe4;" d="M86 244q0 100 80 190q141 156 416 156q87 0 213 -21v47q0 52 -46 76.5t-145 24.5q-105 0 -237 -35q-52 -12 -82 -12q-43 0 -72 30t-29 74q0 65 62 86q74 26 175 44t177 18q189 0 296 -80.5t107 -223.5v-618h-206v47q-154 -80 -340 -80q-152 0 -260.5 81.5t-108.5 195.5z M256 1217q0 51 35.5 86.5t86.5 35.5q52 0 87.5 -36t35.5 -89q0 -50 -36 -85t-87 -35t-86.5 36t-35.5 87zM303 252q0 -34 45 -57t111 -23q170 0 338 104v103q-129 22 -228 22q-104 0 -185 -45.5t-81 -103.5zM682 1217q0 51 35.5 86.5t86.5 35.5q52 0 87.5 -36t35.5 -89 q0 -50 -36 -85t-87 -35t-86.5 36t-35.5 87z" />
<glyph unicode="&#xe5;" d="M86 244q0 100 80 190q141 156 416 156q87 0 213 -21v47q0 52 -46 76.5t-145 24.5q-105 0 -237 -35q-52 -12 -82 -12q-43 0 -72 30t-29 74q0 65 62 86q74 26 175 44t177 18q189 0 296 -80.5t107 -223.5v-618h-206v47q-154 -80 -340 -80q-152 0 -260.5 81.5t-108.5 195.5z M303 252q0 -34 45 -57t111 -23q170 0 338 104v103q-129 22 -228 22q-104 0 -185 -45.5t-81 -103.5zM339 1243q0 100 74.5 173t177.5 73q104 0 178 -73.5t74 -176.5q0 -98 -75.5 -171t-176.5 -73q-103 0 -177.5 73.5t-74.5 174.5zM448 1243q0 -56 42.5 -96.5t100.5 -40.5 q57 0 100.5 40.5t43.5 94.5q0 57 -42.5 98t-101.5 41q-58 0 -100.5 -40.5t-42.5 -96.5z" />
<glyph unicode="&#xe6;" d="M-27 297q0 68 27.5 113.5t91.5 85.5q61 39 148 64.5t159 25.5q26 0 123 -11v41q0 43 -28 72t-70 29q-26 0 -56 -7t-128 -36q-24 -8 -47 -8q-40 0 -69.5 30.5t-29.5 73.5q0 75 84 102q58 19 133 34.5t113 15.5q70 0 127 -27.5t111 -87.5q106 115 229 115q72 0 140 -36.5 t122 -105.5q98 -128 98 -334v-94h-514q26 -97 64.5 -138.5t101.5 -41.5q62 0 139 35q83 35 117 35q40 0 67 -30.5t27 -76.5q0 -59 -51 -90q-54 -33 -139 -55.5t-158 -22.5q-62 0 -105 14t-100 52q-27 -35 -75 -35q-44 0 -74 35q-58 -36 -109 -51t-116 -15 q-160 0 -256.5 90.5t-96.5 239.5zM180 291q0 -54 39.5 -86.5t104.5 -32.5q48 0 92.5 21t105.5 73v121q-63 16 -114 16q-57 0 -113.5 -15t-87.5 -38q-27 -24 -27 -59zM741 528h287q-11 77 -31 113q-17 34 -48 55t-64 21q-35 0 -67.5 -24t-49.5 -64q-16 -36 -27 -101z" />
<glyph unicode="&#xe7;" d="M111 424q0 220 146 359t378 139q162 0 295 -62q73 -34 125 -108.5t52 -144.5q0 -38 -20 -70q-28 -43 -83 -43q-46 0 -74 28q-19 14 -31 70q-11 50 -47 74q-82 51 -217 51q-153 0 -238 -88q-82 -82 -82 -205q0 -252 361 -252q132 0 215 27q28 9 44 19t58 44q28 25 62 25 q41 0 71.5 -31t30.5 -74q0 -82 -131 -149q-135 -66 -364 -66q-148 0 -249.5 34t-176.5 108q-125 125 -125 315zM389 -340q0 29 21.5 50.5t50.5 21.5q16 0 59 -23q65 -35 117 -35q74 0 74 52q0 69 -115 69q-3 0 -39 -4v180q-60 6 -33 45q24 34 82 59q27 12 45 11 q31 -1 70 -39q43 -42 24 -65q-11 -14 -45 -15v-53q154 -30 154 -186q0 -85 -61.5 -141t-153.5 -56q-53 0 -112.5 17t-100.5 44q-37 26 -37 68z" />
<glyph unicode="&#xe8;" d="M68 442q0 133 69 243t190.5 173.5t268.5 63.5q229 0 379.5 -139t150.5 -351v-80h-835q69 -180 336 -180q72 0 133.5 10.5t200.5 46.5q46 11 67 11q41 0 69.5 -30t28.5 -73q0 -59 -71 -92q-69 -31 -204 -54.5t-243 -23.5q-238 0 -389 133t-151 342zM297 532h602 q-25 85 -106.5 135t-194.5 50q-112 0 -195 -51t-106 -134zM305 1352q0 31 22 52t54 21q17 0 28.5 -5.5t36.5 -26.5l273 -228q47 -38 47 -75q0 -29 -22.5 -51.5t-53.5 -22.5q-25 0 -66 33l-272 229q-47 36 -47 74z" />
<glyph unicode="&#xe9;" d="M68 442q0 133 69 243t190.5 173.5t268.5 63.5q229 0 379.5 -139t150.5 -351v-80h-835q69 -180 336 -180q72 0 133.5 10.5t200.5 46.5q46 11 67 11q41 0 69.5 -30t28.5 -73q0 -59 -71 -92q-69 -31 -204 -54.5t-243 -23.5q-238 0 -389 133t-151 342zM297 532h602 q-25 85 -106.5 135t-194.5 50q-112 0 -195 -51t-106 -134zM469 1090q0 37 47 75l272 228q25 20 37 26t29 6q32 0 54 -21.5t22 -53.5q0 -36 -47 -72l-273 -229q-41 -33 -65 -33q-31 0 -53.5 22.5t-22.5 51.5z" />
<glyph unicode="&#xea;" d="M68 442q0 133 69 243t190.5 173.5t268.5 63.5q229 0 379.5 -139t150.5 -351v-80h-835q69 -180 336 -180q72 0 133.5 10.5t200.5 46.5q46 11 67 11q41 0 69.5 -30t28.5 -73q0 -59 -71 -92q-69 -31 -204 -54.5t-243 -23.5q-238 0 -389 133t-151 342zM262 1090 q0 22 7.5 32.5t41.5 38.5l311 264l310 -264q12 -8 18 -14q31 -24 31 -57q0 -28 -21 -50t-49 -22q-26 0 -59 26l-230 199l-231 -199q-33 -26 -57 -26q-29 0 -50.5 22t-21.5 50zM297 532h602q-25 85 -106.5 135t-194.5 50q-112 0 -195 -51t-106 -134z" />
<glyph unicode="&#xeb;" d="M68 442q0 133 69 243t190.5 173.5t268.5 63.5q229 0 379.5 -139t150.5 -351v-80h-835q69 -180 336 -180q72 0 133.5 10.5t200.5 46.5q46 11 67 11q41 0 69.5 -30t28.5 -73q0 -59 -71 -92q-69 -31 -204 -54.5t-243 -23.5q-238 0 -389 133t-151 342zM287 1217 q0 51 35.5 86.5t86.5 35.5q52 0 87.5 -36t35.5 -89q0 -50 -36 -85t-87 -35t-86.5 36t-35.5 87zM297 532h602q-25 85 -106.5 135t-194.5 50q-112 0 -195 -51t-106 -134zM713 1217q0 51 35.5 86.5t86.5 35.5q52 0 87.5 -36t35.5 -89q0 -50 -36 -85t-87 -35t-86.5 36t-35.5 87z " />
<glyph unicode="&#xec;" d="M215 793q0 27 13 51t36 37q21 14 88 14h365v-895h-205v690h-160q-70 0 -94 21q-43 29 -43 82zM283 1352q0 31 22 52t54 21q17 0 28.5 -5.5t36.5 -26.5l273 -228q47 -38 47 -75q0 -29 -22.5 -51.5t-53.5 -22.5q-25 0 -66 33l-272 229q-47 36 -47 74z" />
<glyph unicode="&#xed;" d="M215 793q0 27 13 51t36 37q21 14 88 14h365v-895h-205v690h-160q-70 0 -94 21q-43 29 -43 82zM426 1090q0 37 47 75l272 228q25 20 37 26t29 6q32 0 54 -21.5t22 -53.5q0 -36 -47 -72l-273 -229q-41 -33 -65 -33q-31 0 -53.5 22.5t-22.5 51.5z" />
<glyph unicode="&#xee;" d="M215 793q0 27 13 51t36 37q21 14 88 14h365v-895h-205v690h-160q-70 0 -94 21q-43 29 -43 82zM221 1090q0 22 7.5 32.5t41.5 38.5l311 264l310 -264q12 -8 18 -14q31 -24 31 -57q0 -28 -21 -50t-49 -22q-26 0 -59 26l-230 199l-231 -199q-33 -26 -57 -26q-29 0 -50.5 22 t-21.5 50z" />
<glyph unicode="&#xef;" d="M215 793q0 27 13 51t36 37q21 14 88 14h365v-895h-205v690h-160q-70 0 -94 21q-43 29 -43 82zM244 1217q0 51 35.5 86.5t86.5 35.5q52 0 87.5 -36t35.5 -89q0 -50 -36 -85t-87 -35t-86.5 36t-35.5 87zM670 1217q0 51 35.5 86.5t86.5 35.5q52 0 87.5 -36t35.5 -89 q0 -50 -36 -85t-87 -35t-86.5 36t-35.5 87z" />
<glyph unicode="&#xf0;" d="M86 432q0 129 67 238.5t182 173t251 63.5q77 0 138 -19.5t157 -76.5q-130 162 -281 250l-188 -103q-41 -24 -66 -24q-26 0 -43.5 22t-17.5 54q0 21 8 30.5t41 28.5l102 59q-42 19 -43 19q-25 10 -37 16l-32 11q-54 19 -54 63q0 29 25 51.5t57 22.5q69 0 203 -64l57 -26 l158 84q37 18 68 18q26 0 44.5 -19.5t18.5 -48.5q0 -40 -47 -61l-92 -51q198 -138 289.5 -298.5t91.5 -367.5q0 -122 -34 -209t-108 -155q-77 -69 -178.5 -107.5t-208.5 -38.5q-144 0 -265.5 62t-192 169t-70.5 234zM295 434q0 -109 93.5 -185.5t225.5 -76.5q131 0 225.5 76 t94.5 182q0 121 -92.5 204t-227.5 83q-134 0 -226.5 -82.5t-92.5 -200.5z" />
<glyph unicode="&#xf1;" d="M197 0v895h202v-98q73 70 134.5 97.5t146.5 27.5q139 0 244 -76q120 -89 120 -268v-578h-204v569q0 75 -45 111.5t-140 36.5q-71 0 -127.5 -30.5t-128.5 -108.5v-578h-202zM224 1139q0 44 55 112q80 92 170 92q36 0 72 -15t112 -62q92 -54 119 -54q23 0 36 11.5t48 58.5 q43 61 80 61q26 0 45.5 -17.5t19.5 -39.5q0 -42 -59 -117q-77 -98 -164 -98q-69 0 -203 88q-40 27 -59.5 35t-42.5 8q-28 0 -48.5 -17t-64.5 -77q-22 -31 -53 -31q-26 0 -44.5 18.5t-18.5 43.5z" />
<glyph unicode="&#xf2;" d="M86 444q0 133 70 242.5t193 172.5t272 63q142 0 262.5 -64t190 -174t69.5 -240q0 -131 -70 -240.5t-192 -173t-267 -63.5t-266.5 63.5t-191.5 173t-70 240.5zM291 444q0 -115 93 -193.5t230 -78.5t230.5 78.5t93.5 193.5q0 114 -93 193.5t-227 79.5q-140 0 -233.5 -78 t-93.5 -195zM303 1352q0 31 22 52t54 21q17 0 28.5 -5.5t36.5 -26.5l273 -228q47 -38 47 -75q0 -29 -22.5 -51.5t-53.5 -22.5q-25 0 -66 33l-272 229q-47 36 -47 74z" />
<glyph unicode="&#xf3;" d="M86 444q0 133 70 242.5t193 172.5t272 63q142 0 262.5 -64t190 -174t69.5 -240q0 -131 -70 -240.5t-192 -173t-267 -63.5t-266.5 63.5t-191.5 173t-70 240.5zM291 444q0 -115 93 -193.5t230 -78.5t230.5 78.5t93.5 193.5q0 114 -93 193.5t-227 79.5q-140 0 -233.5 -78 t-93.5 -195zM467 1090q0 37 47 75l272 228q25 20 37 26t29 6q32 0 54 -21.5t22 -53.5q0 -36 -47 -72l-273 -229q-41 -33 -65 -33q-31 0 -53.5 22.5t-22.5 51.5z" />
<glyph unicode="&#xf4;" d="M86 444q0 133 70 242.5t193 172.5t272 63q142 0 262.5 -64t190 -174t69.5 -240q0 -131 -70 -240.5t-192 -173t-267 -63.5t-266.5 63.5t-191.5 173t-70 240.5zM256 1090q0 22 7.5 32.5t41.5 38.5l311 264l310 -264q12 -8 18 -14q31 -24 31 -57q0 -28 -21 -50t-49 -22 q-26 0 -59 26l-230 199l-231 -199q-33 -26 -57 -26q-29 0 -50.5 22t-21.5 50zM291 444q0 -115 93 -193.5t230 -78.5t230.5 78.5t93.5 193.5q0 114 -93 193.5t-227 79.5q-140 0 -233.5 -78t-93.5 -195z" />
<glyph unicode="&#xf5;" d="M86 444q0 133 70 242.5t193 172.5t272 63q142 0 262.5 -64t190 -174t69.5 -240q0 -131 -70 -240.5t-192 -173t-267 -63.5t-266.5 63.5t-191.5 173t-70 240.5zM252 1139q0 44 55 112q80 92 170 92q36 0 72 -15t112 -62q92 -54 119 -54q23 0 36 11.5t48 58.5q43 61 80 61 q26 0 45.5 -17.5t19.5 -39.5q0 -42 -59 -117q-77 -98 -164 -98q-69 0 -203 88q-40 27 -59.5 35t-42.5 8q-28 0 -48.5 -17t-64.5 -77q-22 -31 -53 -31q-26 0 -44.5 18.5t-18.5 43.5zM291 444q0 -115 93 -193.5t230 -78.5t230.5 78.5t93.5 193.5q0 114 -93 193.5t-227 79.5 q-140 0 -233.5 -78t-93.5 -195z" />
<glyph unicode="&#xf6;" d="M86 444q0 133 70 242.5t193 172.5t272 63q142 0 262.5 -64t190 -174t69.5 -240q0 -131 -70 -240.5t-192 -173t-267 -63.5t-266.5 63.5t-191.5 173t-70 240.5zM279 1217q0 51 35.5 86.5t86.5 35.5q52 0 87.5 -36t35.5 -89q0 -50 -36 -85t-87 -35t-86.5 36t-35.5 87z M291 444q0 -115 93 -193.5t230 -78.5t230.5 78.5t93.5 193.5q0 114 -93 193.5t-227 79.5q-140 0 -233.5 -78t-93.5 -195zM705 1217q0 51 35.5 86.5t86.5 35.5q52 0 87.5 -36t35.5 -89q0 -50 -36 -85t-87 -35t-86.5 36t-35.5 87z" />
<glyph unicode="&#xf7;" d="M86 573q0 26 13.5 50.5t35.5 38.5q21 14 86 14h787q65 0 92 -19q43 -32 43 -84q0 -27 -13 -51t-36 -37q-22 -14 -86 -14h-787q-68 0 -92 21q-43 29 -43 81zM461 193q0 60 42 97.5t111 37.5q70 0 112 -37.5t42 -100.5q0 -60 -42.5 -96.5t-111.5 -36.5t-111 38t-42 98z M461 954q0 60 42 98t111 38q70 0 112 -37.5t42 -100.5q0 -60 -42.5 -96.5t-111.5 -36.5t-111 37.5t-42 97.5z" />
<glyph unicode="&#xf8;" d="M47 -45q0 23 10 41t41 49l99 102q-53 65 -82 143t-29 154q0 199 153 338.5t371 139.5q67 0 144.5 -18t130.5 -46l98 100q33 33 50.5 43.5t43.5 10.5q40 0 68.5 -28.5t28.5 -68.5q0 -26 -10 -43.5t-42 -48.5l-86 -88q107 -135 107 -291q0 -131 -70 -240.5t-192 -173 t-267 -63.5q-135 0 -262 62l-114 -119q-32 -32 -50 -42.5t-43 -10.5q-41 0 -69.5 28.5t-28.5 69.5zM291 444q0 -79 51 -147l389 403q-73 17 -117 17q-137 0 -230 -79t-93 -194zM506 186q52 -14 106 -14q138 0 232 78.5t94 193.5q0 72 -45 142z" />
<glyph unicode="&#xf9;" d="M195 319v576h204v-569q0 -148 181 -148q77 0 129 27.5t131 111.5v578h204v-895h-204v98q-76 -72 -136 -98.5t-145 -26.5q-142 0 -244 76q-120 89 -120 270zM299 1352q0 31 22 52t54 21q17 0 28.5 -5.5t36.5 -26.5l273 -228q47 -38 47 -75q0 -29 -22.5 -51.5t-53.5 -22.5 q-25 0 -66 33l-272 229q-47 36 -47 74z" />
<glyph unicode="&#xfa;" d="M195 319v576h204v-569q0 -148 181 -148q77 0 129 27.5t131 111.5v578h204v-895h-204v98q-76 -72 -136 -98.5t-145 -26.5q-142 0 -244 76q-120 89 -120 270zM442 1090q0 37 47 75l272 228q25 20 37 26t29 6q32 0 54 -21.5t22 -53.5q0 -36 -47 -72l-273 -229 q-41 -33 -65 -33q-31 0 -53.5 22.5t-22.5 51.5z" />
<glyph unicode="&#xfb;" d="M195 319v576h204v-569q0 -148 181 -148q77 0 129 27.5t131 111.5v578h204v-895h-204v98q-76 -72 -136 -98.5t-145 -26.5q-142 0 -244 76q-120 89 -120 270zM246 1090q0 22 7.5 32.5t41.5 38.5l311 264l310 -264q12 -8 18 -14q31 -24 31 -57q0 -28 -21 -50t-49 -22 q-26 0 -59 26l-230 199l-231 -199q-33 -26 -57 -26q-29 0 -50.5 22t-21.5 50z" />
<glyph unicode="&#xfc;" d="M195 319v576h204v-569q0 -148 181 -148q77 0 129 27.5t131 111.5v578h204v-895h-204v98q-76 -72 -136 -98.5t-145 -26.5q-142 0 -244 76q-120 89 -120 270zM269 1217q0 51 35.5 86.5t86.5 35.5q52 0 87.5 -36t35.5 -89q0 -50 -36 -85t-87 -35t-86.5 36t-35.5 87z M695 1217q0 51 35.5 86.5t86.5 35.5q52 0 87.5 -36t35.5 -89q0 -50 -36 -85t-87 -35t-86.5 36t-35.5 87z" />
<glyph unicode="&#xfd;" d="M37 895h235l338 -662l357 662h219l-684 -1315h-223l217 426zM512 1090q0 37 47 75l272 228q25 20 37 26t29 6q32 0 54 -21.5t22 -53.5q0 -36 -47 -72l-273 -229q-41 -33 -65 -33q-31 0 -53.5 22.5t-22.5 51.5z" />
<glyph unicode="&#xfe;" d="M152 -420v1698h204v-475q75 65 147 92t169 27q214 0 355.5 -132t141.5 -331q0 -189 -140.5 -314t-354.5 -125q-91 0 -164.5 26.5t-153.5 88.5v-555h-204zM356 473q0 -109 85.5 -178.5t220.5 -69.5q132 0 217.5 69.5t85.5 176.5q0 51 -27.5 102.5t-71.5 83.5 q-78 60 -204 60q-129 0 -207 -60q-44 -32 -71.5 -83t-27.5 -101z" />
<glyph unicode="&#xff;" d="M37 895h235l338 -662l357 662h219l-684 -1315h-223l217 426zM279 1217q0 51 35.5 86.5t86.5 35.5q52 0 87.5 -36t35.5 -89q0 -50 -36 -85t-87 -35t-86.5 36t-35.5 87zM705 1217q0 51 35.5 86.5t86.5 35.5q52 0 87.5 -36t35.5 -89q0 -50 -36 -85t-87 -35t-86.5 36 t-35.5 87z" />
<glyph unicode="&#x152;" d="M-41 598q0 260 160.5 428t410.5 168h684l-4 -205h-460v-289h241v-202h-241v-293h503v-205h-723q-249 0 -410 168.5t-161 429.5zM164 596q0 -103 49 -199t127 -143q43 -27 89 -38t116 -11v784q-79 -2 -131 -16t-97 -47q-69 -51 -111 -142t-42 -188z" />
<glyph unicode="&#x153;" d="M-23 434q0 204 108 346t263 142q158 0 273 -164q108 164 272 164q138 0 248 -125q112 -124 112 -355v-92h-516q40 -178 172 -178q43 0 77.5 10t119.5 47q29 11 49 11q41 0 70.5 -31.5t29.5 -75.5q0 -36 -16.5 -59t-58.5 -45q-51 -25 -136 -43.5t-147 -18.5 q-169 0 -276 152q-54 -73 -124 -112.5t-147 -39.5q-155 0 -264 136.5t-109 330.5zM182 442q0 -110 50.5 -190t119.5 -80q71 0 121.5 79t50.5 189q0 115 -50 195t-122 80q-69 0 -119.5 -80.5t-50.5 -192.5zM743 526h289q-11 60 -33 109q-19 37 -48.5 58.5t-61.5 21.5 q-35 0 -65.5 -23.5t-49.5 -64.5q-18 -44 -31 -101z" />
<glyph unicode="&#x178;" d="M31 1194h245l338 -481l334 481h246l-477 -692v-502h-205v502zM279 1511q0 51 35.5 87t86.5 36q52 0 87.5 -36t35.5 -89q0 -50 -36 -85t-87 -35t-86.5 35.5t-35.5 86.5zM705 1511q0 51 35.5 87t86.5 36q52 0 87.5 -36t35.5 -89q0 -50 -36 -85t-87 -35t-86.5 35.5 t-35.5 86.5z" />
<glyph unicode="&#x2c6;" d="M256 1090q0 22 7.5 32.5t41.5 38.5l311 264l310 -264q12 -8 18 -14q31 -24 31 -57q0 -28 -21 -50t-49 -22q-26 0 -59 26l-230 199l-231 -199q-33 -26 -57 -26q-29 0 -50.5 22t-21.5 50z" />
<glyph unicode="&#x2dc;" d="M236 1139q0 44 55 112q80 92 170 92q36 0 72 -15t112 -62q92 -54 119 -54q23 0 36 11.5t48 58.5q43 61 80 61q26 0 45.5 -17.5t19.5 -39.5q0 -42 -59 -117q-77 -98 -164 -98q-69 0 -203 88q-40 27 -59.5 35t-42.5 8q-28 0 -48.5 -17t-64.5 -77q-22 -31 -53 -31 q-26 0 -44.5 18.5t-18.5 43.5z" />
<glyph unicode="&#x2000;" horiz-adv-x="892" />
<glyph unicode="&#x2001;" horiz-adv-x="1784" />
<glyph unicode="&#x2002;" horiz-adv-x="892" />
<glyph unicode="&#x2003;" horiz-adv-x="1784" />
<glyph unicode="&#x2004;" horiz-adv-x="594" />
<glyph unicode="&#x2005;" horiz-adv-x="446" />
<glyph unicode="&#x2006;" horiz-adv-x="297" />
<glyph unicode="&#x2007;" horiz-adv-x="297" />
<glyph unicode="&#x2008;" horiz-adv-x="223" />
<glyph unicode="&#x2009;" horiz-adv-x="356" />
<glyph unicode="&#x200a;" horiz-adv-x="99" />
<glyph unicode="&#x2010;" d="M86 571q0 56 49 88q23 15 86 15h787q67 0 94 -19q41 -30 41 -84q0 -27 -13 -51t-36 -37q-22 -14 -86 -14h-787q-69 0 -92 18q-43 32 -43 84z" />
<glyph unicode="&#x2011;" d="M86 571q0 56 49 88q23 15 86 15h787q67 0 94 -19q41 -30 41 -84q0 -27 -13 -51t-36 -37q-22 -14 -86 -14h-787q-69 0 -92 18q-43 32 -43 84z" />
<glyph unicode="&#x2012;" d="M86 571q0 56 49 88q23 15 86 15h787q67 0 94 -19q41 -30 41 -84q0 -27 -13 -51t-36 -37q-22 -14 -86 -14h-787q-69 0 -92 18q-43 32 -43 84z" />
<glyph unicode="&#x2013;" d="M86 571q0 56 49 88q23 15 86 15h787q67 0 94 -19q41 -30 41 -84q0 -27 -13 -51t-36 -37q-22 -14 -86 -14h-787q-69 0 -92 18q-43 32 -43 84z" />
<glyph unicode="&#x2014;" d="M-59 571q0 27 13 51t36 37q22 15 86 15h1077q68 0 92 -19q43 -30 43 -84q0 -27 -13 -51t-36 -37q-22 -14 -86 -14h-1077q-69 0 -92 18q-43 32 -43 84z" />
<glyph unicode="&#x2018;" d="M510 1233h270l142 -424q6 -30 6 -39q0 -23 -19.5 -40t-44.5 -17q-20 0 -34 10.5t-31 38.5z" />
<glyph unicode="&#x2019;" d="M301 735q0 16 6 39l142 502h270l-289 -549q-24 -49 -65 -49q-26 0 -45 17t-19 40z" />
<glyph unicode="&#x201a;" d="M301 -266q0 16 6 39l142 501h270l-289 -548q-24 -50 -65 -50q-26 0 -45 17.5t-19 40.5z" />
<glyph unicode="&#x201c;" d="M201 1233h270l141 -424q6 -30 6 -39q0 -23 -19 -40t-44 -17q-20 0 -34.5 10.5t-31.5 38.5zM610 1233h271l141 -424q6 -30 6 -39q0 -23 -19 -40t-44 -17q-20 0 -34.5 10.5t-31.5 38.5z" />
<glyph unicode="&#x201d;" d="M178 770q0 21 6 39l142 424h270l-289 -471q-17 -28 -31 -38.5t-34 -10.5q-25 0 -44.5 17t-19.5 40zM588 770q0 21 6 39l141 424h271l-289 -471q-17 -28 -31.5 -38.5t-34.5 -10.5q-25 0 -44 17t-19 40z" />
<glyph unicode="&#x201e;" d="M178 -188q0 20 6 38l142 424h270l-289 -471q-17 -28 -31 -38.5t-34 -10.5q-25 0 -44.5 17.5t-19.5 40.5zM588 -188q0 20 6 38l141 424h271l-289 -471q-17 -28 -31.5 -38.5t-34.5 -10.5q-25 0 -44 17.5t-19 40.5z" />
<glyph unicode="&#x2022;" d="M307 623q0 126 89.5 215.5t215.5 89.5q129 0 218.5 -90t89.5 -220q0 -124 -91 -213.5t-217 -89.5t-215.5 90.5t-89.5 217.5z" />
<glyph unicode="&#x2026;" d="M51 104q0 56 40 96t95 40h37q57 0 96 -39.5t39 -96.5t-39 -96t-96 -39h-37q-56 0 -95.5 39.5t-39.5 95.5zM461 104q0 56 40 96t95 40h37q57 0 96 -39.5t39 -96.5t-39 -96t-96 -39h-37q-56 0 -95.5 39.5t-39.5 95.5zM870 104q0 56 40 96t96 40h36q57 0 96.5 -39.5 t39.5 -96.5t-39.5 -96t-96.5 -39h-36q-56 0 -96 40t-40 95z" />
<glyph unicode="&#x202f;" horiz-adv-x="356" />
<glyph unicode="&#x2039;" d="M68 446l507 377q34 27 60 27t45.5 -18.5t19.5 -43.5q0 -29 -32 -55l-310 -287l310 -288q32 -28 32 -56q0 -25 -19.5 -43t-47.5 -18q-24 0 -58 27z" />
<glyph unicode="&#x203a;" d="M539 102q0 30 32 56l310 286l-310 289q-32 28 -32 55q0 25 19.5 43.5t47.5 18.5q24 0 58 -27l505 -379l-505 -376q-34 -27 -60 -27t-45.5 18t-19.5 43z" />
<glyph unicode="&#x205f;" horiz-adv-x="446" />
<glyph unicode="&#x20ac;" d="M8 477q0 58 55 58h58v86h-58q-55 0 -55 57t55 57h64q25 214 165 351t333 137h3q136 0 259 -70q80 -45 132 -131t52 -162q0 -38 -14 -65q-22 -43 -76 -43q-40 0 -61.5 25t-30.5 83q-4 36 -22 60t-58 49q-77 49 -176 49q-106 0 -181 -76t-98 -207h400q57 0 57 -57t-57 -57 h-408v-86h352q56 0 56 -58q0 -57 -56 -57h-342q25 -116 108.5 -180t209.5 -64q125 0 198 47q15 9 24.5 18t47.5 52q29 33 64 33q38 0 66 -31t28 -72q0 -73 -98 -149q-60 -48 -150.5 -75.5t-187.5 -27.5q-212 0 -358.5 122.5t-180.5 326.5h-64q-55 0 -55 57z" />
<glyph unicode="&#x2122;" d="M-68 1044v150h594v-150h-223v-593h-149v593h-222zM618 451v743h181l108 -264l107 264h182v-743h-149v428l-115 -258h-39l-125 262v-432h-150z" />
</font>
</defs>
</svg>
